<?xml version="1.0" encoding="utf-8" standalone="no"?>
<!DOCTYPE svg PUBLIC "-//W3C//DTD SVG 1.1//EN"
  "http://www.w3.org/Graphics/SVG/1.1/DTD/svg11.dtd">
<svg xmlns:xlink="http://www.w3.org/1999/xlink" width="1440pt" height="648pt" viewBox="0 0 1440 648" xmlns="http://www.w3.org/2000/svg" version="1.1">
 <metadata>
  <rdf:RDF xmlns:dc="http://purl.org/dc/elements/1.1/" xmlns:cc="http://creativecommons.org/ns#" xmlns:rdf="http://www.w3.org/1999/02/22-rdf-syntax-ns#">
   <cc:Work>
    <dc:type rdf:resource="http://purl.org/dc/dcmitype/StillImage"/>
    <dc:date>2024-07-24T20:57:19.951287</dc:date>
    <dc:format>image/svg+xml</dc:format>
    <dc:creator>
     <cc:Agent>
      <dc:title>Matplotlib v3.8.4, https://matplotlib.org/</dc:title>
     </cc:Agent>
    </dc:creator>
   </cc:Work>
  </rdf:RDF>
 </metadata>
 <defs>
  <style type="text/css">*{stroke-linejoin: round; stroke-linecap: butt}</style>
 </defs>
 <g id="figure_1">
  <g id="patch_1">
   <path d="M 0 648 
L 1440 648 
L 1440 0 
L 0 0 
z
" style="fill: #ffffff"/>
  </g>
  <g id="axes_1">
   <g id="patch_2">
    <path d="M 180 453.6 
L 1296 453.6 
L 1296 77.76 
L 180 77.76 
z
" style="fill: #ffffff"/>
   </g>
   <g id="patch_3">
    <path d="M 230.727273 430.522306 
L 236.989899 430.522306 
L 236.989899 301.22147 
L 230.727273 301.22147 
z
" clip-path="url(#p185411dc6e)" style="fill: #1f77b4"/>
   </g>
   <g id="patch_4">
    <path d="M 248.620491 430.522306 
L 254.883117 430.522306 
L 254.883117 368.281272 
L 248.620491 368.281272 
z
" clip-path="url(#p185411dc6e)" style="fill: #1f77b4"/>
   </g>
   <g id="patch_5">
    <path d="M 266.513709 430.522306 
L 272.776335 430.522306 
L 272.776335 371.751923 
L 266.513709 371.751923 
z
" clip-path="url(#p185411dc6e)" style="fill: #1f77b4"/>
   </g>
   <g id="patch_6">
    <path d="M 284.406926 430.522306 
L 290.669553 430.522306 
L 290.669553 357.459145 
L 284.406926 357.459145 
z
" clip-path="url(#p185411dc6e)" style="fill: #1f77b4"/>
   </g>
   <g id="patch_7">
    <path d="M 302.300144 430.522306 
L 308.562771 430.522306 
L 308.562771 387.856469 
L 302.300144 387.856469 
z
" clip-path="url(#p185411dc6e)" style="fill: #1f77b4"/>
   </g>
   <g id="patch_8">
    <path d="M 320.193362 430.522306 
L 326.455988 430.522306 
L 326.455988 319.378932 
L 320.193362 319.378932 
z
" clip-path="url(#p185411dc6e)" style="fill: #1f77b4"/>
   </g>
   <g id="patch_9">
    <path d="M 338.08658 430.522306 
L 344.349206 430.522306 
L 344.349206 344.059416 
L 338.08658 344.059416 
z
" clip-path="url(#p185411dc6e)" style="fill: #1f77b4"/>
   </g>
   <g id="patch_10">
    <path d="M 355.979798 430.522306 
L 362.242424 430.522306 
L 362.242424 329.269653 
L 355.979798 329.269653 
z
" clip-path="url(#p185411dc6e)" style="fill: #1f77b4"/>
   </g>
   <g id="patch_11">
    <path d="M 373.873016 430.522306 
L 380.135642 430.522306 
L 380.135642 324.249771 
L 373.873016 324.249771 
z
" clip-path="url(#p185411dc6e)" style="fill: #1f77b4"/>
   </g>
   <g id="patch_12">
    <path d="M 391.766234 430.522306 
L 398.02886 430.522306 
L 398.02886 351.139956 
L 391.766234 351.139956 
z
" clip-path="url(#p185411dc6e)" style="fill: #1f77b4"/>
   </g>
   <g id="patch_13">
    <path d="M 409.659452 430.522306 
L 415.922078 430.522306 
L 415.922078 358.093346 
L 409.659452 358.093346 
z
" clip-path="url(#p185411dc6e)" style="fill: #1f77b4"/>
   </g>
   <g id="patch_14">
    <path d="M 427.55267 430.522306 
L 433.815296 430.522306 
L 433.815296 404.296468 
L 427.55267 404.296468 
z
" clip-path="url(#p185411dc6e)" style="fill: #1f77b4"/>
   </g>
   <g id="patch_15">
    <path d="M 445.445887 430.522306 
L 451.708514 430.522306 
L 451.708514 403.653589 
L 445.445887 403.653589 
z
" clip-path="url(#p185411dc6e)" style="fill: #1f77b4"/>
   </g>
   <g id="patch_16">
    <path d="M 463.339105 430.522306 
L 469.601732 430.522306 
L 469.601732 388.991772 
L 463.339105 388.991772 
z
" clip-path="url(#p185411dc6e)" style="fill: #1f77b4"/>
   </g>
   <g id="patch_17">
    <path d="M 481.232323 430.522306 
L 487.494949 430.522306 
L 487.494949 422.261901 
L 481.232323 422.261901 
z
" clip-path="url(#p185411dc6e)" style="fill: #1f77b4"/>
   </g>
   <g id="patch_18">
    <path d="M 499.125541 430.522306 
L 505.388167 430.522306 
L 505.388167 388.251185 
L 499.125541 388.251185 
z
" clip-path="url(#p185411dc6e)" style="fill: #1f77b4"/>
   </g>
   <g id="patch_19">
    <path d="M 517.018759 430.522306 
L 523.281385 430.522306 
L 523.281385 398.883683 
L 517.018759 398.883683 
z
" clip-path="url(#p185411dc6e)" style="fill: #1f77b4"/>
   </g>
   <g id="patch_20">
    <path d="M 534.911977 430.522306 
L 541.174603 430.522306 
L 541.174603 370.496004 
L 534.911977 370.496004 
z
" clip-path="url(#p185411dc6e)" style="fill: #1f77b4"/>
   </g>
   <g id="patch_21">
    <path d="M 552.805195 430.522306 
L 559.067821 430.522306 
L 559.067821 325.776494 
L 552.805195 325.776494 
z
" clip-path="url(#p185411dc6e)" style="fill: #1f77b4"/>
   </g>
   <g id="patch_22">
    <path d="M 570.698413 430.522306 
L 576.961039 430.522306 
L 576.961039 387.549591 
L 570.698413 387.549591 
z
" clip-path="url(#p185411dc6e)" style="fill: #1f77b4"/>
   </g>
   <g id="patch_23">
    <path d="M 588.591631 430.522306 
L 594.854257 430.522306 
L 594.854257 377.053261 
L 588.591631 377.053261 
z
" clip-path="url(#p185411dc6e)" style="fill: #1f77b4"/>
   </g>
   <g id="patch_24">
    <path d="M 606.484848 430.522306 
L 612.747475 430.522306 
L 612.747475 415.46705 
L 606.484848 415.46705 
z
" clip-path="url(#p185411dc6e)" style="fill: #1f77b4"/>
   </g>
   <g id="patch_25">
    <path d="M 624.378066 430.522306 
L 630.640693 430.522306 
L 630.640693 378.08126 
L 624.378066 378.08126 
z
" clip-path="url(#p185411dc6e)" style="fill: #1f77b4"/>
   </g>
   <g id="patch_26">
    <path d="M 642.271284 430.522306 
L 648.533911 430.522306 
L 648.533911 428.353543 
L 642.271284 428.353543 
z
" clip-path="url(#p185411dc6e)" style="fill: #1f77b4"/>
   </g>
   <g id="patch_27">
    <path d="M 660.164502 430.522306 
L 666.427128 430.522306 
L 666.427128 368.119261 
L 660.164502 368.119261 
z
" clip-path="url(#p185411dc6e)" style="fill: #1f77b4"/>
   </g>
   <g id="patch_28">
    <path d="M 678.05772 430.522306 
L 684.320346 430.522306 
L 684.320346 371.177348 
L 678.05772 371.177348 
z
" clip-path="url(#p185411dc6e)" style="fill: #1f77b4"/>
   </g>
   <g id="patch_29">
    <path d="M 695.950938 430.522306 
L 702.213564 430.522306 
L 702.213564 333.666202 
L 695.950938 333.666202 
z
" clip-path="url(#p185411dc6e)" style="fill: #1f77b4"/>
   </g>
   <g id="patch_30">
    <path d="M 713.844156 430.522306 
L 720.106782 430.522306 
L 720.106782 364.504075 
L 713.844156 364.504075 
z
" clip-path="url(#p185411dc6e)" style="fill: #1f77b4"/>
   </g>
   <g id="patch_31">
    <path d="M 731.737374 430.522306 
L 738 430.522306 
L 738 381.749359 
L 731.737374 381.749359 
z
" clip-path="url(#p185411dc6e)" style="fill: #1f77b4"/>
   </g>
   <g id="patch_32">
    <path d="M 749.630592 430.522306 
L 755.893218 430.522306 
L 755.893218 405.188501 
L 749.630592 405.188501 
z
" clip-path="url(#p185411dc6e)" style="fill: #1f77b4"/>
   </g>
   <g id="patch_33">
    <path d="M 767.52381 430.522306 
L 773.786436 430.522306 
L 773.786436 402.138544 
L 767.52381 402.138544 
z
" clip-path="url(#p185411dc6e)" style="fill: #1f77b4"/>
   </g>
   <g id="patch_34">
    <path d="M 785.417027 430.522306 
L 791.679654 430.522306 
L 791.679654 382.399424 
L 785.417027 382.399424 
z
" clip-path="url(#p185411dc6e)" style="fill: #1f77b4"/>
   </g>
   <g id="patch_35">
    <path d="M 803.310245 430.522306 
L 809.572872 430.522306 
L 809.572872 396.902555 
L 803.310245 396.902555 
z
" clip-path="url(#p185411dc6e)" style="fill: #1f77b4"/>
   </g>
   <g id="patch_36">
    <path d="M 821.203463 430.522306 
L 827.466089 430.522306 
L 827.466089 311.714265 
L 821.203463 311.714265 
z
" clip-path="url(#p185411dc6e)" style="fill: #1f77b4"/>
   </g>
   <g id="patch_37">
    <path d="M 839.096681 430.522306 
L 845.359307 430.522306 
L 845.359307 360.108138 
L 839.096681 360.108138 
z
" clip-path="url(#p185411dc6e)" style="fill: #1f77b4"/>
   </g>
   <g id="patch_38">
    <path d="M 856.989899 430.522306 
L 863.252525 430.522306 
L 863.252525 268.808978 
L 856.989899 268.808978 
z
" clip-path="url(#p185411dc6e)" style="fill: #1f77b4"/>
   </g>
   <g id="patch_39">
    <path d="M 874.883117 430.522306 
L 881.145743 430.522306 
L 881.145743 332.601386 
L 874.883117 332.601386 
z
" clip-path="url(#p185411dc6e)" style="fill: #1f77b4"/>
   </g>
   <g id="patch_40">
    <path d="M 892.776335 430.522306 
L 899.038961 430.522306 
L 899.038961 358.919834 
L 892.776335 358.919834 
z
" clip-path="url(#p185411dc6e)" style="fill: #1f77b4"/>
   </g>
   <g id="patch_41">
    <path d="M 910.669553 430.522306 
L 916.932179 430.522306 
L 916.932179 393.655072 
L 910.669553 393.655072 
z
" clip-path="url(#p185411dc6e)" style="fill: #1f77b4"/>
   </g>
   <g id="patch_42">
    <path d="M 928.562771 430.522306 
L 934.825397 430.522306 
L 934.825397 380.73763 
L 928.562771 380.73763 
z
" clip-path="url(#p185411dc6e)" style="fill: #1f77b4"/>
   </g>
   <g id="patch_43">
    <path d="M 946.455988 430.522306 
L 952.718615 430.522306 
L 952.718615 373.330897 
L 946.455988 373.330897 
z
" clip-path="url(#p185411dc6e)" style="fill: #1f77b4"/>
   </g>
   <g id="patch_44">
    <path d="M 964.349206 430.522306 
L 970.611833 430.522306 
L 970.611833 398.843539 
L 964.349206 398.843539 
z
" clip-path="url(#p185411dc6e)" style="fill: #1f77b4"/>
   </g>
   <g id="patch_45">
    <path d="M 982.242424 430.522306 
L 988.505051 430.522306 
L 988.505051 404.154871 
L 982.242424 404.154871 
z
" clip-path="url(#p185411dc6e)" style="fill: #1f77b4"/>
   </g>
   <g id="patch_46">
    <path d="M 1000.135642 430.522306 
L 1006.398268 430.522306 
L 1006.398268 414.959629 
L 1000.135642 414.959629 
z
" clip-path="url(#p185411dc6e)" style="fill: #1f77b4"/>
   </g>
   <g id="patch_47">
    <path d="M 1018.02886 430.522306 
L 1024.291486 430.522306 
L 1024.291486 391.649261 
L 1018.02886 391.649261 
z
" clip-path="url(#p185411dc6e)" style="fill: #1f77b4"/>
   </g>
   <g id="patch_48">
    <path d="M 1035.922078 430.522306 
L 1042.184704 430.522306 
L 1042.184704 350.781249 
L 1035.922078 350.781249 
z
" clip-path="url(#p185411dc6e)" style="fill: #1f77b4"/>
   </g>
   <g id="patch_49">
    <path d="M 1053.815296 430.522306 
L 1060.077922 430.522306 
L 1060.077922 293.379004 
L 1053.815296 293.379004 
z
" clip-path="url(#p185411dc6e)" style="fill: #1f77b4"/>
   </g>
   <g id="patch_50">
    <path d="M 1071.708514 430.522306 
L 1077.97114 430.522306 
L 1077.97114 381.798909 
L 1071.708514 381.798909 
z
" clip-path="url(#p185411dc6e)" style="fill: #1f77b4"/>
   </g>
   <g id="patch_51">
    <path d="M 1089.601732 430.522306 
L 1095.864358 430.522306 
L 1095.864358 365.865274 
L 1089.601732 365.865274 
z
" clip-path="url(#p185411dc6e)" style="fill: #1f77b4"/>
   </g>
   <g id="patch_52">
    <path d="M 1107.494949 430.522306 
L 1113.757576 430.522306 
L 1113.757576 407.261145 
L 1107.494949 407.261145 
z
" clip-path="url(#p185411dc6e)" style="fill: #1f77b4"/>
   </g>
   <g id="patch_53">
    <path d="M 1125.388167 430.522306 
L 1131.650794 430.522306 
L 1131.650794 432.737142 
L 1125.388167 432.737142 
z
" clip-path="url(#p185411dc6e)" style="fill: #1f77b4"/>
   </g>
   <g id="patch_54">
    <path d="M 1143.281385 430.522306 
L 1149.544012 430.522306 
L 1149.544012 406.641622 
L 1143.281385 406.641622 
z
" clip-path="url(#p185411dc6e)" style="fill: #1f77b4"/>
   </g>
   <g id="patch_55">
    <path d="M 1161.174603 430.522306 
L 1167.437229 430.522306 
L 1167.437229 396.119737 
L 1161.174603 396.119737 
z
" clip-path="url(#p185411dc6e)" style="fill: #1f77b4"/>
   </g>
   <g id="patch_56">
    <path d="M 1179.067821 430.522306 
L 1185.330447 430.522306 
L 1185.330447 436.516364 
L 1179.067821 436.516364 
z
" clip-path="url(#p185411dc6e)" style="fill: #1f77b4"/>
   </g>
   <g id="patch_57">
    <path d="M 1196.961039 430.522306 
L 1203.223665 430.522306 
L 1203.223665 411.354177 
L 1196.961039 411.354177 
z
" clip-path="url(#p185411dc6e)" style="fill: #1f77b4"/>
   </g>
   <g id="patch_58">
    <path d="M 1214.854257 430.522306 
L 1221.116883 430.522306 
L 1221.116883 425.673103 
L 1214.854257 425.673103 
z
" clip-path="url(#p185411dc6e)" style="fill: #1f77b4"/>
   </g>
   <g id="patch_59">
    <path d="M 1232.747475 430.522306 
L 1239.010101 430.522306 
L 1239.010101 424.960602 
L 1232.747475 424.960602 
z
" clip-path="url(#p185411dc6e)" style="fill: #1f77b4"/>
   </g>
   <g id="patch_60">
    <path d="M 236.989899 430.522306 
L 243.252525 430.522306 
L 243.252525 433.632919 
L 236.989899 433.632919 
z
" clip-path="url(#p185411dc6e)" style="fill: #ff7f0e"/>
   </g>
   <g id="patch_61">
    <path d="M 254.883117 430.522306 
L 261.145743 430.522306 
L 261.145743 423.294698 
L 254.883117 423.294698 
z
" clip-path="url(#p185411dc6e)" style="fill: #ff7f0e"/>
   </g>
   <g id="patch_62">
    <path d="M 272.776335 430.522306 
L 279.038961 430.522306 
L 279.038961 406.403429 
L 272.776335 406.403429 
z
" clip-path="url(#p185411dc6e)" style="fill: #ff7f0e"/>
   </g>
   <g id="patch_63">
    <path d="M 290.669553 430.522306 
L 296.932179 430.522306 
L 296.932179 389.931397 
L 290.669553 389.931397 
z
" clip-path="url(#p185411dc6e)" style="fill: #ff7f0e"/>
   </g>
   <g id="patch_64">
    <path d="M 308.562771 430.522306 
L 314.825397 430.522306 
L 314.825397 349.223921 
L 308.562771 349.223921 
z
" clip-path="url(#p185411dc6e)" style="fill: #ff7f0e"/>
   </g>
   <g id="patch_65">
    <path d="M 326.455988 430.522306 
L 332.718615 430.522306 
L 332.718615 222.521797 
L 326.455988 222.521797 
z
" clip-path="url(#p185411dc6e)" style="fill: #ff7f0e"/>
   </g>
   <g id="patch_66">
    <path d="M 344.349206 430.522306 
L 350.611833 430.522306 
L 350.611833 121.648496 
L 344.349206 121.648496 
z
" clip-path="url(#p185411dc6e)" style="fill: #ff7f0e"/>
   </g>
   <g id="patch_67">
    <path d="M 362.242424 430.522306 
L 368.505051 430.522306 
L 368.505051 290.278671 
L 362.242424 290.278671 
z
" clip-path="url(#p185411dc6e)" style="fill: #ff7f0e"/>
   </g>
   <g id="patch_68">
    <path d="M 380.135642 430.522306 
L 386.398268 430.522306 
L 386.398268 247.997298 
L 380.135642 247.997298 
z
" clip-path="url(#p185411dc6e)" style="fill: #ff7f0e"/>
   </g>
   <g id="patch_69">
    <path d="M 398.02886 430.522306 
L 404.291486 430.522306 
L 404.291486 127.530576 
L 398.02886 127.530576 
z
" clip-path="url(#p185411dc6e)" style="fill: #ff7f0e"/>
   </g>
   <g id="patch_70">
    <path d="M 415.922078 430.522306 
L 422.184704 430.522306 
L 422.184704 319.822734 
L 415.922078 319.822734 
z
" clip-path="url(#p185411dc6e)" style="fill: #ff7f0e"/>
   </g>
   <g id="patch_71">
    <path d="M 433.815296 430.522306 
L 440.077922 430.522306 
L 440.077922 397.051395 
L 433.815296 397.051395 
z
" clip-path="url(#p185411dc6e)" style="fill: #ff7f0e"/>
   </g>
   <g id="patch_72">
    <path d="M 451.708514 430.522306 
L 457.97114 430.522306 
L 457.97114 376.074589 
L 451.708514 376.074589 
z
" clip-path="url(#p185411dc6e)" style="fill: #ff7f0e"/>
   </g>
   <g id="patch_73">
    <path d="M 469.601732 430.522306 
L 475.864358 430.522306 
L 475.864358 417.335559 
L 469.601732 417.335559 
z
" clip-path="url(#p185411dc6e)" style="fill: #ff7f0e"/>
   </g>
   <g id="patch_74">
    <path d="M 487.494949 430.522306 
L 493.757576 430.522306 
L 493.757576 421.13301 
L 487.494949 421.13301 
z
" clip-path="url(#p185411dc6e)" style="fill: #ff7f0e"/>
   </g>
   <g id="patch_75">
    <path d="M 505.388167 430.522306 
L 511.650794 430.522306 
L 511.650794 325.138424 
L 505.388167 325.138424 
z
" clip-path="url(#p185411dc6e)" style="fill: #ff7f0e"/>
   </g>
   <g id="patch_76">
    <path d="M 523.281385 430.522306 
L 529.544012 430.522306 
L 529.544012 339.699844 
L 523.281385 339.699844 
z
" clip-path="url(#p185411dc6e)" style="fill: #ff7f0e"/>
   </g>
   <g id="patch_77">
    <path d="M 541.174603 430.522306 
L 547.437229 430.522306 
L 547.437229 285.662222 
L 541.174603 285.662222 
z
" clip-path="url(#p185411dc6e)" style="fill: #ff7f0e"/>
   </g>
   <g id="patch_78">
    <path d="M 559.067821 430.522306 
L 565.330447 430.522306 
L 565.330447 146.491882 
L 559.067821 146.491882 
z
" clip-path="url(#p185411dc6e)" style="fill: #ff7f0e"/>
   </g>
   <g id="patch_79">
    <path d="M 576.961039 430.522306 
L 583.223665 430.522306 
L 583.223665 320.264766 
L 576.961039 320.264766 
z
" clip-path="url(#p185411dc6e)" style="fill: #ff7f0e"/>
   </g>
   <g id="patch_80">
    <path d="M 594.854257 430.522306 
L 601.116883 430.522306 
L 601.116883 292.45294 
L 594.854257 292.45294 
z
" clip-path="url(#p185411dc6e)" style="fill: #ff7f0e"/>
   </g>
   <g id="patch_81">
    <path d="M 612.747475 430.522306 
L 619.010101 430.522306 
L 619.010101 290.211432 
L 612.747475 290.211432 
z
" clip-path="url(#p185411dc6e)" style="fill: #ff7f0e"/>
   </g>
   <g id="patch_82">
    <path d="M 630.640693 430.522306 
L 636.903319 430.522306 
L 636.903319 298.194899 
L 630.640693 298.194899 
z
" clip-path="url(#p185411dc6e)" style="fill: #ff7f0e"/>
   </g>
   <g id="patch_83">
    <path d="M 648.533911 430.522306 
L 654.796537 430.522306 
L 654.796537 319.797123 
L 648.533911 319.797123 
z
" clip-path="url(#p185411dc6e)" style="fill: #ff7f0e"/>
   </g>
   <g id="patch_84">
    <path d="M 666.427128 430.522306 
L 672.689755 430.522306 
L 672.689755 269.931912 
L 666.427128 269.931912 
z
" clip-path="url(#p185411dc6e)" style="fill: #ff7f0e"/>
   </g>
   <g id="patch_85">
    <path d="M 684.320346 430.522306 
L 690.582973 430.522306 
L 690.582973 281.098078 
L 684.320346 281.098078 
z
" clip-path="url(#p185411dc6e)" style="fill: #ff7f0e"/>
   </g>
   <g id="patch_86">
    <path d="M 702.213564 430.522306 
L 708.47619 430.522306 
L 708.47619 241.224951 
L 702.213564 241.224951 
z
" clip-path="url(#p185411dc6e)" style="fill: #ff7f0e"/>
   </g>
   <g id="patch_87">
    <path d="M 720.106782 430.522306 
L 726.369408 430.522306 
L 726.369408 247.02425 
L 720.106782 247.02425 
z
" clip-path="url(#p185411dc6e)" style="fill: #ff7f0e"/>
   </g>
   <g id="patch_88">
    <path d="M 738 430.522306 
L 744.262626 430.522306 
L 744.262626 249.337454 
L 738 249.337454 
z
" clip-path="url(#p185411dc6e)" style="fill: #ff7f0e"/>
   </g>
   <g id="patch_89">
    <path d="M 755.893218 430.522306 
L 762.155844 430.522306 
L 762.155844 382.295907 
L 755.893218 382.295907 
z
" clip-path="url(#p185411dc6e)" style="fill: #ff7f0e"/>
   </g>
   <g id="patch_90">
    <path d="M 773.786436 430.522306 
L 780.049062 430.522306 
L 780.049062 338.473047 
L 773.786436 338.473047 
z
" clip-path="url(#p185411dc6e)" style="fill: #ff7f0e"/>
   </g>
   <g id="patch_91">
    <path d="M 791.679654 430.522306 
L 797.94228 430.522306 
L 797.94228 201.221229 
L 791.679654 201.221229 
z
" clip-path="url(#p185411dc6e)" style="fill: #ff7f0e"/>
   </g>
   <g id="patch_92">
    <path d="M 809.572872 430.522306 
L 815.835498 430.522306 
L 815.835498 284.023206 
L 809.572872 284.023206 
z
" clip-path="url(#p185411dc6e)" style="fill: #ff7f0e"/>
   </g>
   <g id="patch_93">
    <path d="M 827.466089 430.522306 
L 833.728716 430.522306 
L 833.728716 111.079777 
L 827.466089 111.079777 
z
" clip-path="url(#p185411dc6e)" style="fill: #ff7f0e"/>
   </g>
   <g id="patch_94">
    <path d="M 845.359307 430.522306 
L 851.621934 430.522306 
L 851.621934 266.004486 
L 845.359307 266.004486 
z
" clip-path="url(#p185411dc6e)" style="fill: #ff7f0e"/>
   </g>
   <g id="patch_95">
    <path d="M 863.252525 430.522306 
L 869.515152 430.522306 
L 869.515152 94.843636 
L 863.252525 94.843636 
z
" clip-path="url(#p185411dc6e)" style="fill: #ff7f0e"/>
   </g>
   <g id="patch_96">
    <path d="M 881.145743 430.522306 
L 887.408369 430.522306 
L 887.408369 135.589047 
L 881.145743 135.589047 
z
" clip-path="url(#p185411dc6e)" style="fill: #ff7f0e"/>
   </g>
   <g id="patch_97">
    <path d="M 899.038961 430.522306 
L 905.301587 430.522306 
L 905.301587 254.352572 
L 899.038961 254.352572 
z
" clip-path="url(#p185411dc6e)" style="fill: #ff7f0e"/>
   </g>
   <g id="patch_98">
    <path d="M 916.932179 430.522306 
L 923.194805 430.522306 
L 923.194805 367.567484 
L 916.932179 367.567484 
z
" clip-path="url(#p185411dc6e)" style="fill: #ff7f0e"/>
   </g>
   <g id="patch_99">
    <path d="M 934.825397 430.522306 
L 941.088023 430.522306 
L 941.088023 315.969566 
L 934.825397 315.969566 
z
" clip-path="url(#p185411dc6e)" style="fill: #ff7f0e"/>
   </g>
   <g id="patch_100">
    <path d="M 952.718615 430.522306 
L 958.981241 430.522306 
L 958.981241 266.439036 
L 952.718615 266.439036 
z
" clip-path="url(#p185411dc6e)" style="fill: #ff7f0e"/>
   </g>
   <g id="patch_101">
    <path d="M 970.611833 430.522306 
L 976.874459 430.522306 
L 976.874459 354.233604 
L 970.611833 354.233604 
z
" clip-path="url(#p185411dc6e)" style="fill: #ff7f0e"/>
   </g>
   <g id="patch_102">
    <path d="M 988.505051 430.522306 
L 994.767677 430.522306 
L 994.767677 353.751329 
L 988.505051 353.751329 
z
" clip-path="url(#p185411dc6e)" style="fill: #ff7f0e"/>
   </g>
   <g id="patch_103">
    <path d="M 1006.398268 430.522306 
L 1012.660895 430.522306 
L 1012.660895 373.860395 
L 1006.398268 373.860395 
z
" clip-path="url(#p185411dc6e)" style="fill: #ff7f0e"/>
   </g>
   <g id="patch_104">
    <path d="M 1024.291486 430.522306 
L 1030.554113 430.522306 
L 1030.554113 331.957887 
L 1024.291486 331.957887 
z
" clip-path="url(#p185411dc6e)" style="fill: #ff7f0e"/>
   </g>
   <g id="patch_105">
    <path d="M 1042.184704 430.522306 
L 1048.44733 430.522306 
L 1048.44733 266.539749 
L 1042.184704 266.539749 
z
" clip-path="url(#p185411dc6e)" style="fill: #ff7f0e"/>
   </g>
   <g id="patch_106">
    <path d="M 1060.077922 430.522306 
L 1066.340548 430.522306 
L 1066.340548 218.986314 
L 1060.077922 218.986314 
z
" clip-path="url(#p185411dc6e)" style="fill: #ff7f0e"/>
   </g>
   <g id="patch_107">
    <path d="M 1077.97114 430.522306 
L 1084.233766 430.522306 
L 1084.233766 294.572851 
L 1077.97114 294.572851 
z
" clip-path="url(#p185411dc6e)" style="fill: #ff7f0e"/>
   </g>
   <g id="patch_108">
    <path d="M 1095.864358 430.522306 
L 1102.126984 430.522306 
L 1102.126984 271.2189 
L 1095.864358 271.2189 
z
" clip-path="url(#p185411dc6e)" style="fill: #ff7f0e"/>
   </g>
   <g id="patch_109">
    <path d="M 1113.757576 430.522306 
L 1120.020202 430.522306 
L 1120.020202 317.328524 
L 1113.757576 317.328524 
z
" clip-path="url(#p185411dc6e)" style="fill: #ff7f0e"/>
   </g>
   <g id="patch_110">
    <path d="M 1131.650794 430.522306 
L 1137.91342 430.522306 
L 1137.91342 380.523692 
L 1131.650794 380.523692 
z
" clip-path="url(#p185411dc6e)" style="fill: #ff7f0e"/>
   </g>
   <g id="patch_111">
    <path d="M 1149.544012 430.522306 
L 1155.806638 430.522306 
L 1155.806638 355.553394 
L 1149.544012 355.553394 
z
" clip-path="url(#p185411dc6e)" style="fill: #ff7f0e"/>
   </g>
   <g id="patch_112">
    <path d="M 1167.437229 430.522306 
L 1173.699856 430.522306 
L 1173.699856 373.55561 
L 1167.437229 373.55561 
z
" clip-path="url(#p185411dc6e)" style="fill: #ff7f0e"/>
   </g>
   <g id="patch_113">
    <path d="M 1185.330447 430.522306 
L 1191.593074 430.522306 
L 1191.593074 294.64312 
L 1185.330447 294.64312 
z
" clip-path="url(#p185411dc6e)" style="fill: #ff7f0e"/>
   </g>
   <g id="patch_114">
    <path d="M 1203.223665 430.522306 
L 1209.486291 430.522306 
L 1209.486291 403.509444 
L 1203.223665 403.509444 
z
" clip-path="url(#p185411dc6e)" style="fill: #ff7f0e"/>
   </g>
   <g id="patch_115">
    <path d="M 1221.116883 430.522306 
L 1227.379509 430.522306 
L 1227.379509 415.026361 
L 1221.116883 415.026361 
z
" clip-path="url(#p185411dc6e)" style="fill: #ff7f0e"/>
   </g>
   <g id="patch_116">
    <path d="M 1239.010101 430.522306 
L 1245.272727 430.522306 
L 1245.272727 424.829932 
L 1239.010101 424.829932 
z
" clip-path="url(#p185411dc6e)" style="fill: #ff7f0e"/>
   </g>
   <g id="matplotlib.axis_1">
    <g id="xtick_1">
     <g id="line2d_1">
      <defs>
       <path id="m6d30e0d145" d="M 0 0 
L 0 3.5 
" style="stroke: #000000; stroke-width: 0.8"/>
      </defs>
      <g>
       <use xlink:href="#m6d30e0d145" x="236.989899" y="453.6" style="stroke: #000000; stroke-width: 0.8"/>
      </g>
     </g>
     <g id="text_1">
      <!-- V1 -->
      <g transform="translate(233.246461 484.365625) rotate(-90) scale(0.18 -0.18)">
       <defs>
        <path id="DejaVuSans-56" d="M 1831 0 
L 50 4666 
L 709 4666 
L 2188 738 
L 3669 4666 
L 4325 4666 
L 2547 0 
L 1831 0 
z
" transform="scale(0.015625)"/>
        <path id="DejaVuSans-31" d="M 794 531 
L 1825 531 
L 1825 4091 
L 703 3866 
L 703 4441 
L 1819 4666 
L 2450 4666 
L 2450 531 
L 3481 531 
L 3481 0 
L 794 0 
L 794 531 
z
" transform="scale(0.015625)"/>
       </defs>
       <use xlink:href="#DejaVuSans-56"/>
       <use xlink:href="#DejaVuSans-31" x="68.408203"/>
      </g>
     </g>
    </g>
    <g id="xtick_2">
     <g id="line2d_2">
      <g>
       <use xlink:href="#m6d30e0d145" x="254.883117" y="453.6" style="stroke: #000000; stroke-width: 0.8"/>
      </g>
     </g>
     <g id="text_2">
      <!-- V2 -->
      <g transform="translate(251.139679 484.365625) rotate(-90) scale(0.18 -0.18)">
       <defs>
        <path id="DejaVuSans-32" d="M 1228 531 
L 3431 531 
L 3431 0 
L 469 0 
L 469 531 
Q 828 903 1448 1529 
Q 2069 2156 2228 2338 
Q 2531 2678 2651 2914 
Q 2772 3150 2772 3378 
Q 2772 3750 2511 3984 
Q 2250 4219 1831 4219 
Q 1534 4219 1204 4116 
Q 875 4013 500 3803 
L 500 4441 
Q 881 4594 1212 4672 
Q 1544 4750 1819 4750 
Q 2544 4750 2975 4387 
Q 3406 4025 3406 3419 
Q 3406 3131 3298 2873 
Q 3191 2616 2906 2266 
Q 2828 2175 2409 1742 
Q 1991 1309 1228 531 
z
" transform="scale(0.015625)"/>
       </defs>
       <use xlink:href="#DejaVuSans-56"/>
       <use xlink:href="#DejaVuSans-32" x="68.408203"/>
      </g>
     </g>
    </g>
    <g id="xtick_3">
     <g id="line2d_3">
      <g>
       <use xlink:href="#m6d30e0d145" x="272.776335" y="453.6" style="stroke: #000000; stroke-width: 0.8"/>
      </g>
     </g>
     <g id="text_3">
      <!-- V3 -->
      <g transform="translate(269.032897 484.365625) rotate(-90) scale(0.18 -0.18)">
       <defs>
        <path id="DejaVuSans-33" d="M 2597 2516 
Q 3050 2419 3304 2112 
Q 3559 1806 3559 1356 
Q 3559 666 3084 287 
Q 2609 -91 1734 -91 
Q 1441 -91 1130 -33 
Q 819 25 488 141 
L 488 750 
Q 750 597 1062 519 
Q 1375 441 1716 441 
Q 2309 441 2620 675 
Q 2931 909 2931 1356 
Q 2931 1769 2642 2001 
Q 2353 2234 1838 2234 
L 1294 2234 
L 1294 2753 
L 1863 2753 
Q 2328 2753 2575 2939 
Q 2822 3125 2822 3475 
Q 2822 3834 2567 4026 
Q 2313 4219 1838 4219 
Q 1578 4219 1281 4162 
Q 984 4106 628 3988 
L 628 4550 
Q 988 4650 1302 4700 
Q 1616 4750 1894 4750 
Q 2613 4750 3031 4423 
Q 3450 4097 3450 3541 
Q 3450 3153 3228 2886 
Q 3006 2619 2597 2516 
z
" transform="scale(0.015625)"/>
       </defs>
       <use xlink:href="#DejaVuSans-56"/>
       <use xlink:href="#DejaVuSans-33" x="68.408203"/>
      </g>
     </g>
    </g>
    <g id="xtick_4">
     <g id="line2d_4">
      <g>
       <use xlink:href="#m6d30e0d145" x="290.669553" y="453.6" style="stroke: #000000; stroke-width: 0.8"/>
      </g>
     </g>
     <g id="text_4">
      <!-- V4 -->
      <g transform="translate(286.926115 484.365625) rotate(-90) scale(0.18 -0.18)">
       <defs>
        <path id="DejaVuSans-34" d="M 2419 4116 
L 825 1625 
L 2419 1625 
L 2419 4116 
z
M 2253 4666 
L 3047 4666 
L 3047 1625 
L 3713 1625 
L 3713 1100 
L 3047 1100 
L 3047 0 
L 2419 0 
L 2419 1100 
L 313 1100 
L 313 1709 
L 2253 4666 
z
" transform="scale(0.015625)"/>
       </defs>
       <use xlink:href="#DejaVuSans-56"/>
       <use xlink:href="#DejaVuSans-34" x="68.408203"/>
      </g>
     </g>
    </g>
    <g id="xtick_5">
     <g id="line2d_5">
      <g>
       <use xlink:href="#m6d30e0d145" x="308.562771" y="453.6" style="stroke: #000000; stroke-width: 0.8"/>
      </g>
     </g>
     <g id="text_5">
      <!-- V3A -->
      <g transform="translate(304.819333 496.67875) rotate(-90) scale(0.18 -0.18)">
       <defs>
        <path id="DejaVuSans-41" d="M 2188 4044 
L 1331 1722 
L 3047 1722 
L 2188 4044 
z
M 1831 4666 
L 2547 4666 
L 4325 0 
L 3669 0 
L 3244 1197 
L 1141 1197 
L 716 0 
L 50 0 
L 1831 4666 
z
" transform="scale(0.015625)"/>
       </defs>
       <use xlink:href="#DejaVuSans-56"/>
       <use xlink:href="#DejaVuSans-33" x="68.408203"/>
       <use xlink:href="#DejaVuSans-41" x="132.03125"/>
      </g>
     </g>
    </g>
    <g id="xtick_6">
     <g id="line2d_6">
      <g>
       <use xlink:href="#m6d30e0d145" x="326.455988" y="453.6" style="stroke: #000000; stroke-width: 0.8"/>
      </g>
     </g>
     <g id="text_6">
      <!-- V3B -->
      <g transform="translate(322.712551 496.715313) rotate(-90) scale(0.18 -0.18)">
       <defs>
        <path id="DejaVuSans-42" d="M 1259 2228 
L 1259 519 
L 2272 519 
Q 2781 519 3026 730 
Q 3272 941 3272 1375 
Q 3272 1813 3026 2020 
Q 2781 2228 2272 2228 
L 1259 2228 
z
M 1259 4147 
L 1259 2741 
L 2194 2741 
Q 2656 2741 2882 2914 
Q 3109 3088 3109 3444 
Q 3109 3797 2882 3972 
Q 2656 4147 2194 4147 
L 1259 4147 
z
M 628 4666 
L 2241 4666 
Q 2963 4666 3353 4366 
Q 3744 4066 3744 3513 
Q 3744 3084 3544 2831 
Q 3344 2578 2956 2516 
Q 3422 2416 3680 2098 
Q 3938 1781 3938 1306 
Q 3938 681 3513 340 
Q 3088 0 2303 0 
L 628 0 
L 628 4666 
z
" transform="scale(0.015625)"/>
       </defs>
       <use xlink:href="#DejaVuSans-56"/>
       <use xlink:href="#DejaVuSans-33" x="68.408203"/>
       <use xlink:href="#DejaVuSans-42" x="132.03125"/>
      </g>
     </g>
    </g>
    <g id="xtick_7">
     <g id="line2d_7">
      <g>
       <use xlink:href="#m6d30e0d145" x="344.349206" y="453.6" style="stroke: #000000; stroke-width: 0.8"/>
      </g>
     </g>
     <g id="text_7">
      <!-- V3CD -->
      <g transform="translate(340.605769 510.794688) rotate(-90) scale(0.18 -0.18)">
       <defs>
        <path id="DejaVuSans-43" d="M 4122 4306 
L 4122 3641 
Q 3803 3938 3442 4084 
Q 3081 4231 2675 4231 
Q 1875 4231 1450 3742 
Q 1025 3253 1025 2328 
Q 1025 1406 1450 917 
Q 1875 428 2675 428 
Q 3081 428 3442 575 
Q 3803 722 4122 1019 
L 4122 359 
Q 3791 134 3420 21 
Q 3050 -91 2638 -91 
Q 1578 -91 968 557 
Q 359 1206 359 2328 
Q 359 3453 968 4101 
Q 1578 4750 2638 4750 
Q 3056 4750 3426 4639 
Q 3797 4528 4122 4306 
z
" transform="scale(0.015625)"/>
        <path id="DejaVuSans-44" d="M 1259 4147 
L 1259 519 
L 2022 519 
Q 2988 519 3436 956 
Q 3884 1394 3884 2338 
Q 3884 3275 3436 3711 
Q 2988 4147 2022 4147 
L 1259 4147 
z
M 628 4666 
L 1925 4666 
Q 3281 4666 3915 4102 
Q 4550 3538 4550 2338 
Q 4550 1131 3912 565 
Q 3275 0 1925 0 
L 628 0 
L 628 4666 
z
" transform="scale(0.015625)"/>
       </defs>
       <use xlink:href="#DejaVuSans-56"/>
       <use xlink:href="#DejaVuSans-33" x="68.408203"/>
       <use xlink:href="#DejaVuSans-43" x="132.03125"/>
       <use xlink:href="#DejaVuSans-44" x="201.855469"/>
      </g>
     </g>
    </g>
    <g id="xtick_8">
     <g id="line2d_8">
      <g>
       <use xlink:href="#m6d30e0d145" x="362.242424" y="453.6" style="stroke: #000000; stroke-width: 0.8"/>
      </g>
     </g>
     <g id="text_8">
      <!-- V6 -->
      <g transform="translate(358.498987 484.365625) rotate(-90) scale(0.18 -0.18)">
       <defs>
        <path id="DejaVuSans-36" d="M 2113 2584 
Q 1688 2584 1439 2293 
Q 1191 2003 1191 1497 
Q 1191 994 1439 701 
Q 1688 409 2113 409 
Q 2538 409 2786 701 
Q 3034 994 3034 1497 
Q 3034 2003 2786 2293 
Q 2538 2584 2113 2584 
z
M 3366 4563 
L 3366 3988 
Q 3128 4100 2886 4159 
Q 2644 4219 2406 4219 
Q 1781 4219 1451 3797 
Q 1122 3375 1075 2522 
Q 1259 2794 1537 2939 
Q 1816 3084 2150 3084 
Q 2853 3084 3261 2657 
Q 3669 2231 3669 1497 
Q 3669 778 3244 343 
Q 2819 -91 2113 -91 
Q 1303 -91 875 529 
Q 447 1150 447 2328 
Q 447 3434 972 4092 
Q 1497 4750 2381 4750 
Q 2619 4750 2861 4703 
Q 3103 4656 3366 4563 
z
" transform="scale(0.015625)"/>
       </defs>
       <use xlink:href="#DejaVuSans-56"/>
       <use xlink:href="#DejaVuSans-36" x="68.408203"/>
      </g>
     </g>
    </g>
    <g id="xtick_9">
     <g id="line2d_9">
      <g>
       <use xlink:href="#m6d30e0d145" x="380.135642" y="453.6" style="stroke: #000000; stroke-width: 0.8"/>
      </g>
     </g>
     <g id="text_9">
      <!-- V6A -->
      <g transform="translate(376.392205 496.67875) rotate(-90) scale(0.18 -0.18)">
       <use xlink:href="#DejaVuSans-56"/>
       <use xlink:href="#DejaVuSans-36" x="68.408203"/>
       <use xlink:href="#DejaVuSans-41" x="132.03125"/>
      </g>
     </g>
    </g>
    <g id="xtick_10">
     <g id="line2d_10">
      <g>
       <use xlink:href="#m6d30e0d145" x="398.02886" y="453.6" style="stroke: #000000; stroke-width: 0.8"/>
      </g>
     </g>
     <g id="text_10">
      <!-- V7 -->
      <g transform="translate(394.285423 484.365625) rotate(-90) scale(0.18 -0.18)">
       <defs>
        <path id="DejaVuSans-37" d="M 525 4666 
L 3525 4666 
L 3525 4397 
L 1831 0 
L 1172 0 
L 2766 4134 
L 525 4134 
L 525 4666 
z
" transform="scale(0.015625)"/>
       </defs>
       <use xlink:href="#DejaVuSans-56"/>
       <use xlink:href="#DejaVuSans-37" x="68.408203"/>
      </g>
     </g>
    </g>
    <g id="xtick_11">
     <g id="line2d_11">
      <g>
       <use xlink:href="#m6d30e0d145" x="415.922078" y="453.6" style="stroke: #000000; stroke-width: 0.8"/>
      </g>
     </g>
     <g id="text_11">
      <!-- DVT -->
      <g transform="translate(412.17864 497.452188) rotate(-90) scale(0.18 -0.18)">
       <defs>
        <path id="DejaVuSans-54" d="M -19 4666 
L 3928 4666 
L 3928 4134 
L 2272 4134 
L 2272 0 
L 1638 0 
L 1638 4134 
L -19 4134 
L -19 4666 
z
" transform="scale(0.015625)"/>
       </defs>
       <use xlink:href="#DejaVuSans-44"/>
       <use xlink:href="#DejaVuSans-56" x="75.251953"/>
       <use xlink:href="#DejaVuSans-54" x="143.660156"/>
      </g>
     </g>
    </g>
    <g id="xtick_12">
     <g id="line2d_12">
      <g>
       <use xlink:href="#m6d30e0d145" x="433.815296" y="453.6" style="stroke: #000000; stroke-width: 0.8"/>
      </g>
     </g>
     <g id="text_12">
      <!-- POS1 -->
      <g transform="translate(430.071858 508.5025) rotate(-90) scale(0.18 -0.18)">
       <defs>
        <path id="DejaVuSans-50" d="M 1259 4147 
L 1259 2394 
L 2053 2394 
Q 2494 2394 2734 2622 
Q 2975 2850 2975 3272 
Q 2975 3691 2734 3919 
Q 2494 4147 2053 4147 
L 1259 4147 
z
M 628 4666 
L 2053 4666 
Q 2838 4666 3239 4311 
Q 3641 3956 3641 3272 
Q 3641 2581 3239 2228 
Q 2838 1875 2053 1875 
L 1259 1875 
L 1259 0 
L 628 0 
L 628 4666 
z
" transform="scale(0.015625)"/>
        <path id="DejaVuSans-4f" d="M 2522 4238 
Q 1834 4238 1429 3725 
Q 1025 3213 1025 2328 
Q 1025 1447 1429 934 
Q 1834 422 2522 422 
Q 3209 422 3611 934 
Q 4013 1447 4013 2328 
Q 4013 3213 3611 3725 
Q 3209 4238 2522 4238 
z
M 2522 4750 
Q 3503 4750 4090 4092 
Q 4678 3434 4678 2328 
Q 4678 1225 4090 567 
Q 3503 -91 2522 -91 
Q 1538 -91 948 565 
Q 359 1222 359 2328 
Q 359 3434 948 4092 
Q 1538 4750 2522 4750 
z
" transform="scale(0.015625)"/>
        <path id="DejaVuSans-53" d="M 3425 4513 
L 3425 3897 
Q 3066 4069 2747 4153 
Q 2428 4238 2131 4238 
Q 1616 4238 1336 4038 
Q 1056 3838 1056 3469 
Q 1056 3159 1242 3001 
Q 1428 2844 1947 2747 
L 2328 2669 
Q 3034 2534 3370 2195 
Q 3706 1856 3706 1288 
Q 3706 609 3251 259 
Q 2797 -91 1919 -91 
Q 1588 -91 1214 -16 
Q 841 59 441 206 
L 441 856 
Q 825 641 1194 531 
Q 1563 422 1919 422 
Q 2459 422 2753 634 
Q 3047 847 3047 1241 
Q 3047 1584 2836 1778 
Q 2625 1972 2144 2069 
L 1759 2144 
Q 1053 2284 737 2584 
Q 422 2884 422 3419 
Q 422 4038 858 4394 
Q 1294 4750 2059 4750 
Q 2388 4750 2728 4690 
Q 3069 4631 3425 4513 
z
" transform="scale(0.015625)"/>
       </defs>
       <use xlink:href="#DejaVuSans-50"/>
       <use xlink:href="#DejaVuSans-4f" x="60.302734"/>
       <use xlink:href="#DejaVuSans-53" x="139.013672"/>
       <use xlink:href="#DejaVuSans-31" x="202.490234"/>
      </g>
     </g>
    </g>
    <g id="xtick_13">
     <g id="line2d_13">
      <g>
       <use xlink:href="#m6d30e0d145" x="451.708514" y="453.6" style="stroke: #000000; stroke-width: 0.8"/>
      </g>
     </g>
     <g id="text_13">
      <!-- POS2 -->
      <g transform="translate(447.965076 508.5025) rotate(-90) scale(0.18 -0.18)">
       <use xlink:href="#DejaVuSans-50"/>
       <use xlink:href="#DejaVuSans-4f" x="60.302734"/>
       <use xlink:href="#DejaVuSans-53" x="139.013672"/>
       <use xlink:href="#DejaVuSans-32" x="202.490234"/>
      </g>
     </g>
    </g>
    <g id="xtick_14">
     <g id="line2d_14">
      <g>
       <use xlink:href="#m6d30e0d145" x="469.601732" y="453.6" style="stroke: #000000; stroke-width: 0.8"/>
      </g>
     </g>
     <g id="text_14">
      <!-- V8 -->
      <g transform="translate(465.858294 484.365625) rotate(-90) scale(0.18 -0.18)">
       <defs>
        <path id="DejaVuSans-38" d="M 2034 2216 
Q 1584 2216 1326 1975 
Q 1069 1734 1069 1313 
Q 1069 891 1326 650 
Q 1584 409 2034 409 
Q 2484 409 2743 651 
Q 3003 894 3003 1313 
Q 3003 1734 2745 1975 
Q 2488 2216 2034 2216 
z
M 1403 2484 
Q 997 2584 770 2862 
Q 544 3141 544 3541 
Q 544 4100 942 4425 
Q 1341 4750 2034 4750 
Q 2731 4750 3128 4425 
Q 3525 4100 3525 3541 
Q 3525 3141 3298 2862 
Q 3072 2584 2669 2484 
Q 3125 2378 3379 2068 
Q 3634 1759 3634 1313 
Q 3634 634 3220 271 
Q 2806 -91 2034 -91 
Q 1263 -91 848 271 
Q 434 634 434 1313 
Q 434 1759 690 2068 
Q 947 2378 1403 2484 
z
M 1172 3481 
Q 1172 3119 1398 2916 
Q 1625 2713 2034 2713 
Q 2441 2713 2670 2916 
Q 2900 3119 2900 3481 
Q 2900 3844 2670 4047 
Q 2441 4250 2034 4250 
Q 1625 4250 1398 4047 
Q 1172 3844 1172 3481 
z
" transform="scale(0.015625)"/>
       </defs>
       <use xlink:href="#DejaVuSans-56"/>
       <use xlink:href="#DejaVuSans-38" x="68.408203"/>
      </g>
     </g>
    </g>
    <g id="xtick_15">
     <g id="line2d_15">
      <g>
       <use xlink:href="#m6d30e0d145" x="487.494949" y="453.6" style="stroke: #000000; stroke-width: 0.8"/>
      </g>
     </g>
     <g id="text_15">
      <!-- 7m -->
      <g transform="translate(483.751512 489.585625) rotate(-90) scale(0.18 -0.18)">
       <defs>
        <path id="DejaVuSans-6d" d="M 3328 2828 
Q 3544 3216 3844 3400 
Q 4144 3584 4550 3584 
Q 5097 3584 5394 3201 
Q 5691 2819 5691 2113 
L 5691 0 
L 5113 0 
L 5113 2094 
Q 5113 2597 4934 2840 
Q 4756 3084 4391 3084 
Q 3944 3084 3684 2787 
Q 3425 2491 3425 1978 
L 3425 0 
L 2847 0 
L 2847 2094 
Q 2847 2600 2669 2842 
Q 2491 3084 2119 3084 
Q 1678 3084 1418 2786 
Q 1159 2488 1159 1978 
L 1159 0 
L 581 0 
L 581 3500 
L 1159 3500 
L 1159 2956 
Q 1356 3278 1631 3431 
Q 1906 3584 2284 3584 
Q 2666 3584 2933 3390 
Q 3200 3197 3328 2828 
z
" transform="scale(0.015625)"/>
       </defs>
       <use xlink:href="#DejaVuSans-37"/>
       <use xlink:href="#DejaVuSans-6d" x="63.623047"/>
      </g>
     </g>
    </g>
    <g id="xtick_16">
     <g id="line2d_16">
      <g>
       <use xlink:href="#m6d30e0d145" x="505.388167" y="453.6" style="stroke: #000000; stroke-width: 0.8"/>
      </g>
     </g>
     <g id="text_16">
      <!-- 7Pm -->
      <g transform="translate(501.64473 500.439063) rotate(-90) scale(0.18 -0.18)">
       <use xlink:href="#DejaVuSans-37"/>
       <use xlink:href="#DejaVuSans-50" x="63.623047"/>
       <use xlink:href="#DejaVuSans-6d" x="123.925781"/>
      </g>
     </g>
    </g>
    <g id="xtick_17">
     <g id="line2d_17">
      <g>
       <use xlink:href="#m6d30e0d145" x="523.281385" y="453.6" style="stroke: #000000; stroke-width: 0.8"/>
      </g>
     </g>
     <g id="text_17">
      <!-- 7Am -->
      <g transform="translate(519.537948 501.89875) rotate(-90) scale(0.18 -0.18)">
       <use xlink:href="#DejaVuSans-37"/>
       <use xlink:href="#DejaVuSans-41" x="63.623047"/>
       <use xlink:href="#DejaVuSans-6d" x="132.03125"/>
      </g>
     </g>
    </g>
    <g id="xtick_18">
     <g id="line2d_18">
      <g>
       <use xlink:href="#m6d30e0d145" x="541.174603" y="453.6" style="stroke: #000000; stroke-width: 0.8"/>
      </g>
     </g>
     <g id="text_18">
      <!-- 7PL -->
      <g transform="translate(537.431166 492.935313) rotate(-90) scale(0.18 -0.18)">
       <defs>
        <path id="DejaVuSans-4c" d="M 628 4666 
L 1259 4666 
L 1259 531 
L 3531 531 
L 3531 0 
L 628 0 
L 628 4666 
z
" transform="scale(0.015625)"/>
       </defs>
       <use xlink:href="#DejaVuSans-37"/>
       <use xlink:href="#DejaVuSans-50" x="63.623047"/>
       <use xlink:href="#DejaVuSans-4c" x="123.925781"/>
      </g>
     </g>
    </g>
    <g id="xtick_19">
     <g id="line2d_19">
      <g>
       <use xlink:href="#m6d30e0d145" x="559.067821" y="453.6" style="stroke: #000000; stroke-width: 0.8"/>
      </g>
     </g>
     <g id="text_19">
      <!-- 7AL -->
      <g transform="translate(555.324384 494.395) rotate(-90) scale(0.18 -0.18)">
       <use xlink:href="#DejaVuSans-37"/>
       <use xlink:href="#DejaVuSans-41" x="63.623047"/>
       <use xlink:href="#DejaVuSans-4c" x="132.03125"/>
      </g>
     </g>
    </g>
    <g id="xtick_20">
     <g id="line2d_20">
      <g>
       <use xlink:href="#m6d30e0d145" x="576.961039" y="453.6" style="stroke: #000000; stroke-width: 0.8"/>
      </g>
     </g>
     <g id="text_20">
      <!-- 7PC -->
      <g transform="translate(573.217601 495.475) rotate(-90) scale(0.18 -0.18)">
       <use xlink:href="#DejaVuSans-37"/>
       <use xlink:href="#DejaVuSans-50" x="63.623047"/>
       <use xlink:href="#DejaVuSans-43" x="123.925781"/>
      </g>
     </g>
    </g>
    <g id="xtick_21">
     <g id="line2d_21">
      <g>
       <use xlink:href="#m6d30e0d145" x="594.854257" y="453.6" style="stroke: #000000; stroke-width: 0.8"/>
      </g>
     </g>
     <g id="text_21">
      <!-- IPS1 -->
      <g transform="translate(591.110819 499.643125) rotate(-90) scale(0.18 -0.18)">
       <defs>
        <path id="DejaVuSans-49" d="M 628 4666 
L 1259 4666 
L 1259 0 
L 628 0 
L 628 4666 
z
" transform="scale(0.015625)"/>
       </defs>
       <use xlink:href="#DejaVuSans-49"/>
       <use xlink:href="#DejaVuSans-50" x="29.492188"/>
       <use xlink:href="#DejaVuSans-53" x="89.794922"/>
       <use xlink:href="#DejaVuSans-31" x="153.271484"/>
      </g>
     </g>
    </g>
    <g id="xtick_22">
     <g id="line2d_22">
      <g>
       <use xlink:href="#m6d30e0d145" x="612.747475" y="453.6" style="stroke: #000000; stroke-width: 0.8"/>
      </g>
     </g>
     <g id="text_22">
      <!-- IP0 -->
      <g transform="translate(609.004037 488.215938) rotate(-90) scale(0.18 -0.18)">
       <defs>
        <path id="DejaVuSans-30" d="M 2034 4250 
Q 1547 4250 1301 3770 
Q 1056 3291 1056 2328 
Q 1056 1369 1301 889 
Q 1547 409 2034 409 
Q 2525 409 2770 889 
Q 3016 1369 3016 2328 
Q 3016 3291 2770 3770 
Q 2525 4250 2034 4250 
z
M 2034 4750 
Q 2819 4750 3233 4129 
Q 3647 3509 3647 2328 
Q 3647 1150 3233 529 
Q 2819 -91 2034 -91 
Q 1250 -91 836 529 
Q 422 1150 422 2328 
Q 422 3509 836 4129 
Q 1250 4750 2034 4750 
z
" transform="scale(0.015625)"/>
       </defs>
       <use xlink:href="#DejaVuSans-49"/>
       <use xlink:href="#DejaVuSans-50" x="29.492188"/>
       <use xlink:href="#DejaVuSans-30" x="89.794922"/>
      </g>
     </g>
    </g>
    <g id="xtick_23">
     <g id="line2d_23">
      <g>
       <use xlink:href="#m6d30e0d145" x="630.640693" y="453.6" style="stroke: #000000; stroke-width: 0.8"/>
      </g>
     </g>
     <g id="text_23">
      <!-- IP1 -->
      <g transform="translate(626.897255 488.215938) rotate(-90) scale(0.18 -0.18)">
       <use xlink:href="#DejaVuSans-49"/>
       <use xlink:href="#DejaVuSans-50" x="29.492188"/>
       <use xlink:href="#DejaVuSans-31" x="89.794922"/>
      </g>
     </g>
    </g>
    <g id="xtick_24">
     <g id="line2d_24">
      <g>
       <use xlink:href="#m6d30e0d145" x="648.533911" y="453.6" style="stroke: #000000; stroke-width: 0.8"/>
      </g>
     </g>
     <g id="text_24">
      <!-- IP2 -->
      <g transform="translate(644.790473 488.215938) rotate(-90) scale(0.18 -0.18)">
       <use xlink:href="#DejaVuSans-49"/>
       <use xlink:href="#DejaVuSans-50" x="29.492188"/>
       <use xlink:href="#DejaVuSans-32" x="89.794922"/>
      </g>
     </g>
    </g>
    <g id="xtick_25">
     <g id="line2d_25">
      <g>
       <use xlink:href="#m6d30e0d145" x="666.427128" y="453.6" style="stroke: #000000; stroke-width: 0.8"/>
      </g>
     </g>
     <g id="text_25">
      <!-- MIP -->
      <g transform="translate(662.683691 492.294063) rotate(-90) scale(0.18 -0.18)">
       <defs>
        <path id="DejaVuSans-4d" d="M 628 4666 
L 1569 4666 
L 2759 1491 
L 3956 4666 
L 4897 4666 
L 4897 0 
L 4281 0 
L 4281 4097 
L 3078 897 
L 2444 897 
L 1241 4097 
L 1241 0 
L 628 0 
L 628 4666 
z
" transform="scale(0.015625)"/>
       </defs>
       <use xlink:href="#DejaVuSans-4d"/>
       <use xlink:href="#DejaVuSans-49" x="86.279297"/>
       <use xlink:href="#DejaVuSans-50" x="115.771484"/>
      </g>
     </g>
    </g>
    <g id="xtick_26">
     <g id="line2d_26">
      <g>
       <use xlink:href="#m6d30e0d145" x="684.320346" y="453.6" style="stroke: #000000; stroke-width: 0.8"/>
      </g>
     </g>
     <g id="text_26">
      <!-- VIP -->
      <g transform="translate(680.576909 489.076563) rotate(-90) scale(0.18 -0.18)">
       <use xlink:href="#DejaVuSans-56"/>
       <use xlink:href="#DejaVuSans-49" x="68.408203"/>
       <use xlink:href="#DejaVuSans-50" x="97.900391"/>
      </g>
     </g>
    </g>
    <g id="xtick_27">
     <g id="line2d_27">
      <g>
       <use xlink:href="#m6d30e0d145" x="702.213564" y="453.6" style="stroke: #000000; stroke-width: 0.8"/>
      </g>
     </g>
     <g id="text_27">
      <!-- AIP -->
      <g transform="translate(698.470127 489.076563) rotate(-90) scale(0.18 -0.18)">
       <use xlink:href="#DejaVuSans-41"/>
       <use xlink:href="#DejaVuSans-49" x="68.408203"/>
       <use xlink:href="#DejaVuSans-50" x="97.900391"/>
      </g>
     </g>
    </g>
    <g id="xtick_28">
     <g id="line2d_28">
      <g>
       <use xlink:href="#m6d30e0d145" x="720.106782" y="453.6" style="stroke: #000000; stroke-width: 0.8"/>
      </g>
     </g>
     <g id="text_28">
      <!-- LIPv -->
      <g transform="translate(716.363345 497.446563) rotate(-90) scale(0.18 -0.18)">
       <defs>
        <path id="DejaVuSans-76" d="M 191 3500 
L 800 3500 
L 1894 563 
L 2988 3500 
L 3597 3500 
L 2284 0 
L 1503 0 
L 191 3500 
z
" transform="scale(0.015625)"/>
       </defs>
       <use xlink:href="#DejaVuSans-4c"/>
       <use xlink:href="#DejaVuSans-49" x="55.712891"/>
       <use xlink:href="#DejaVuSans-50" x="85.205078"/>
       <use xlink:href="#DejaVuSans-76" x="145.507812"/>
      </g>
     </g>
    </g>
    <g id="xtick_29">
     <g id="line2d_29">
      <g>
       <use xlink:href="#m6d30e0d145" x="738" y="453.6" style="stroke: #000000; stroke-width: 0.8"/>
      </g>
     </g>
     <g id="text_29">
      <!-- LIPd -->
      <g transform="translate(734.256562 498.22) rotate(-90) scale(0.18 -0.18)">
       <defs>
        <path id="DejaVuSans-64" d="M 2906 2969 
L 2906 4863 
L 3481 4863 
L 3481 0 
L 2906 0 
L 2906 525 
Q 2725 213 2448 61 
Q 2172 -91 1784 -91 
Q 1150 -91 751 415 
Q 353 922 353 1747 
Q 353 2572 751 3078 
Q 1150 3584 1784 3584 
Q 2172 3584 2448 3432 
Q 2725 3281 2906 2969 
z
M 947 1747 
Q 947 1113 1208 752 
Q 1469 391 1925 391 
Q 2381 391 2643 752 
Q 2906 1113 2906 1747 
Q 2906 2381 2643 2742 
Q 2381 3103 1925 3103 
Q 1469 3103 1208 2742 
Q 947 2381 947 1747 
z
" transform="scale(0.015625)"/>
       </defs>
       <use xlink:href="#DejaVuSans-4c"/>
       <use xlink:href="#DejaVuSans-49" x="55.712891"/>
       <use xlink:href="#DejaVuSans-50" x="85.205078"/>
       <use xlink:href="#DejaVuSans-64" x="145.507812"/>
      </g>
     </g>
    </g>
    <g id="xtick_30">
     <g id="line2d_30">
      <g>
       <use xlink:href="#m6d30e0d145" x="755.893218" y="453.6" style="stroke: #000000; stroke-width: 0.8"/>
      </g>
     </g>
     <g id="text_30">
      <!-- PGs -->
      <g transform="translate(752.14978 494.7775) rotate(-90) scale(0.18 -0.18)">
       <defs>
        <path id="DejaVuSans-47" d="M 3809 666 
L 3809 1919 
L 2778 1919 
L 2778 2438 
L 4434 2438 
L 4434 434 
Q 4069 175 3628 42 
Q 3188 -91 2688 -91 
Q 1594 -91 976 548 
Q 359 1188 359 2328 
Q 359 3472 976 4111 
Q 1594 4750 2688 4750 
Q 3144 4750 3555 4637 
Q 3966 4525 4313 4306 
L 4313 3634 
Q 3963 3931 3569 4081 
Q 3175 4231 2741 4231 
Q 1884 4231 1454 3753 
Q 1025 3275 1025 2328 
Q 1025 1384 1454 906 
Q 1884 428 2741 428 
Q 3075 428 3337 486 
Q 3600 544 3809 666 
z
" transform="scale(0.015625)"/>
        <path id="DejaVuSans-73" d="M 2834 3397 
L 2834 2853 
Q 2591 2978 2328 3040 
Q 2066 3103 1784 3103 
Q 1356 3103 1142 2972 
Q 928 2841 928 2578 
Q 928 2378 1081 2264 
Q 1234 2150 1697 2047 
L 1894 2003 
Q 2506 1872 2764 1633 
Q 3022 1394 3022 966 
Q 3022 478 2636 193 
Q 2250 -91 1575 -91 
Q 1294 -91 989 -36 
Q 684 19 347 128 
L 347 722 
Q 666 556 975 473 
Q 1284 391 1588 391 
Q 1994 391 2212 530 
Q 2431 669 2431 922 
Q 2431 1156 2273 1281 
Q 2116 1406 1581 1522 
L 1381 1569 
Q 847 1681 609 1914 
Q 372 2147 372 2553 
Q 372 3047 722 3315 
Q 1072 3584 1716 3584 
Q 2034 3584 2315 3537 
Q 2597 3491 2834 3397 
z
" transform="scale(0.015625)"/>
       </defs>
       <use xlink:href="#DejaVuSans-50"/>
       <use xlink:href="#DejaVuSans-47" x="60.302734"/>
       <use xlink:href="#DejaVuSans-73" x="137.792969"/>
      </g>
     </g>
    </g>
    <g id="xtick_31">
     <g id="line2d_31">
      <g>
       <use xlink:href="#m6d30e0d145" x="773.786436" y="453.6" style="stroke: #000000; stroke-width: 0.8"/>
      </g>
     </g>
     <g id="text_31">
      <!-- PGp -->
      <g transform="translate(770.042998 496.827813) rotate(-90) scale(0.18 -0.18)">
       <defs>
        <path id="DejaVuSans-70" d="M 1159 525 
L 1159 -1331 
L 581 -1331 
L 581 3500 
L 1159 3500 
L 1159 2969 
Q 1341 3281 1617 3432 
Q 1894 3584 2278 3584 
Q 2916 3584 3314 3078 
Q 3713 2572 3713 1747 
Q 3713 922 3314 415 
Q 2916 -91 2278 -91 
Q 1894 -91 1617 61 
Q 1341 213 1159 525 
z
M 3116 1747 
Q 3116 2381 2855 2742 
Q 2594 3103 2138 3103 
Q 1681 3103 1420 2742 
Q 1159 2381 1159 1747 
Q 1159 1113 1420 752 
Q 1681 391 2138 391 
Q 2594 391 2855 752 
Q 3116 1113 3116 1747 
z
" transform="scale(0.015625)"/>
       </defs>
       <use xlink:href="#DejaVuSans-50"/>
       <use xlink:href="#DejaVuSans-47" x="60.302734"/>
       <use xlink:href="#DejaVuSans-70" x="137.792969"/>
      </g>
     </g>
    </g>
    <g id="xtick_32">
     <g id="line2d_32">
      <g>
       <use xlink:href="#m6d30e0d145" x="791.679654" y="453.6" style="stroke: #000000; stroke-width: 0.8"/>
      </g>
     </g>
     <g id="text_32">
      <!-- LO1 -->
      <g transform="translate(787.936216 495.59875) rotate(-90) scale(0.18 -0.18)">
       <use xlink:href="#DejaVuSans-4c"/>
       <use xlink:href="#DejaVuSans-4f" x="52.087891"/>
       <use xlink:href="#DejaVuSans-31" x="130.798828"/>
      </g>
     </g>
    </g>
    <g id="xtick_33">
     <g id="line2d_33">
      <g>
       <use xlink:href="#m6d30e0d145" x="809.572872" y="453.6" style="stroke: #000000; stroke-width: 0.8"/>
      </g>
     </g>
     <g id="text_33">
      <!-- LO2 -->
      <g transform="translate(805.829434 495.59875) rotate(-90) scale(0.18 -0.18)">
       <use xlink:href="#DejaVuSans-4c"/>
       <use xlink:href="#DejaVuSans-4f" x="52.087891"/>
       <use xlink:href="#DejaVuSans-32" x="130.798828"/>
      </g>
     </g>
    </g>
    <g id="xtick_34">
     <g id="line2d_34">
      <g>
       <use xlink:href="#m6d30e0d145" x="827.466089" y="453.6" style="stroke: #000000; stroke-width: 0.8"/>
      </g>
     </g>
     <g id="text_34">
      <!-- LO3 -->
      <g transform="translate(823.722652 495.59875) rotate(-90) scale(0.18 -0.18)">
       <use xlink:href="#DejaVuSans-4c"/>
       <use xlink:href="#DejaVuSans-4f" x="52.087891"/>
       <use xlink:href="#DejaVuSans-33" x="130.798828"/>
      </g>
     </g>
    </g>
    <g id="xtick_35">
     <g id="line2d_35">
      <g>
       <use xlink:href="#m6d30e0d145" x="845.359307" y="453.6" style="stroke: #000000; stroke-width: 0.8"/>
      </g>
     </g>
     <g id="text_35">
      <!-- V4t -->
      <g transform="translate(841.61587 491.422188) rotate(-90) scale(0.18 -0.18)">
       <defs>
        <path id="DejaVuSans-74" d="M 1172 4494 
L 1172 3500 
L 2356 3500 
L 2356 3053 
L 1172 3053 
L 1172 1153 
Q 1172 725 1289 603 
Q 1406 481 1766 481 
L 2356 481 
L 2356 0 
L 1766 0 
Q 1100 0 847 248 
Q 594 497 594 1153 
L 594 3053 
L 172 3053 
L 172 3500 
L 594 3500 
L 594 4494 
L 1172 4494 
z
" transform="scale(0.015625)"/>
       </defs>
       <use xlink:href="#DejaVuSans-56"/>
       <use xlink:href="#DejaVuSans-34" x="68.408203"/>
       <use xlink:href="#DejaVuSans-74" x="132.03125"/>
      </g>
     </g>
    </g>
    <g id="xtick_36">
     <g id="line2d_36">
      <g>
       <use xlink:href="#m6d30e0d145" x="863.252525" y="453.6" style="stroke: #000000; stroke-width: 0.8"/>
      </g>
     </g>
     <g id="text_36">
      <!-- MT -->
      <g transform="translate(859.509088 487.124688) rotate(-90) scale(0.18 -0.18)">
       <use xlink:href="#DejaVuSans-4d"/>
       <use xlink:href="#DejaVuSans-54" x="86.279297"/>
      </g>
     </g>
    </g>
    <g id="xtick_37">
     <g id="line2d_37">
      <g>
       <use xlink:href="#m6d30e0d145" x="881.145743" y="453.6" style="stroke: #000000; stroke-width: 0.8"/>
      </g>
     </g>
     <g id="text_37">
      <!-- MST -->
      <g transform="translate(877.402306 498.551875) rotate(-90) scale(0.18 -0.18)">
       <use xlink:href="#DejaVuSans-4d"/>
       <use xlink:href="#DejaVuSans-53" x="86.279297"/>
       <use xlink:href="#DejaVuSans-54" x="149.755859"/>
      </g>
     </g>
    </g>
    <g id="xtick_38">
     <g id="line2d_38">
      <g>
       <use xlink:href="#m6d30e0d145" x="899.038961" y="453.6" style="stroke: #000000; stroke-width: 0.8"/>
      </g>
     </g>
     <g id="text_38">
      <!-- FST -->
      <g transform="translate(895.295524 493.059063) rotate(-90) scale(0.18 -0.18)">
       <defs>
        <path id="DejaVuSans-46" d="M 628 4666 
L 3309 4666 
L 3309 4134 
L 1259 4134 
L 1259 2759 
L 3109 2759 
L 3109 2228 
L 1259 2228 
L 1259 0 
L 628 0 
L 628 4666 
z
" transform="scale(0.015625)"/>
       </defs>
       <use xlink:href="#DejaVuSans-46"/>
       <use xlink:href="#DejaVuSans-53" x="55.769531"/>
       <use xlink:href="#DejaVuSans-54" x="119.246094"/>
      </g>
     </g>
    </g>
    <g id="xtick_39">
     <g id="line2d_39">
      <g>
       <use xlink:href="#m6d30e0d145" x="916.932179" y="453.6" style="stroke: #000000; stroke-width: 0.8"/>
      </g>
     </g>
     <g id="text_39">
      <!-- TPOJ1 -->
      <g transform="translate(913.188741 513.379375) rotate(-90) scale(0.18 -0.18)">
       <defs>
        <path id="DejaVuSans-4a" d="M 628 4666 
L 1259 4666 
L 1259 325 
Q 1259 -519 939 -900 
Q 619 -1281 -91 -1281 
L -331 -1281 
L -331 -750 
L -134 -750 
Q 284 -750 456 -515 
Q 628 -281 628 325 
L 628 4666 
z
" transform="scale(0.015625)"/>
       </defs>
       <use xlink:href="#DejaVuSans-54"/>
       <use xlink:href="#DejaVuSans-50" x="61.083984"/>
       <use xlink:href="#DejaVuSans-4f" x="121.386719"/>
       <use xlink:href="#DejaVuSans-4a" x="200.097656"/>
       <use xlink:href="#DejaVuSans-31" x="229.589844"/>
      </g>
     </g>
    </g>
    <g id="xtick_40">
     <g id="line2d_40">
      <g>
       <use xlink:href="#m6d30e0d145" x="934.825397" y="453.6" style="stroke: #000000; stroke-width: 0.8"/>
      </g>
     </g>
     <g id="text_40">
      <!-- TPOJ2 -->
      <g transform="translate(931.081959 513.379375) rotate(-90) scale(0.18 -0.18)">
       <use xlink:href="#DejaVuSans-54"/>
       <use xlink:href="#DejaVuSans-50" x="61.083984"/>
       <use xlink:href="#DejaVuSans-4f" x="121.386719"/>
       <use xlink:href="#DejaVuSans-4a" x="200.097656"/>
       <use xlink:href="#DejaVuSans-32" x="229.589844"/>
      </g>
     </g>
    </g>
    <g id="xtick_41">
     <g id="line2d_41">
      <g>
       <use xlink:href="#m6d30e0d145" x="952.718615" y="453.6" style="stroke: #000000; stroke-width: 0.8"/>
      </g>
     </g>
     <g id="text_41">
      <!-- TPOJ3 -->
      <g transform="translate(948.975177 513.379375) rotate(-90) scale(0.18 -0.18)">
       <use xlink:href="#DejaVuSans-54"/>
       <use xlink:href="#DejaVuSans-50" x="61.083984"/>
       <use xlink:href="#DejaVuSans-4f" x="121.386719"/>
       <use xlink:href="#DejaVuSans-4a" x="200.097656"/>
       <use xlink:href="#DejaVuSans-33" x="229.589844"/>
      </g>
     </g>
    </g>
    <g id="xtick_42">
     <g id="line2d_42">
      <g>
       <use xlink:href="#m6d30e0d145" x="970.611833" y="453.6" style="stroke: #000000; stroke-width: 0.8"/>
      </g>
     </g>
     <g id="text_42">
      <!-- STV -->
      <g transform="translate(966.868395 495.334375) rotate(-90) scale(0.18 -0.18)">
       <use xlink:href="#DejaVuSans-53"/>
       <use xlink:href="#DejaVuSans-54" x="63.476562"/>
       <use xlink:href="#DejaVuSans-56" x="124.560547"/>
      </g>
     </g>
    </g>
    <g id="xtick_43">
     <g id="line2d_43">
      <g>
       <use xlink:href="#m6d30e0d145" x="988.505051" y="453.6" style="stroke: #000000; stroke-width: 0.8"/>
      </g>
     </g>
     <g id="text_43">
      <!-- PSL -->
      <g transform="translate(984.761613 492.91) rotate(-90) scale(0.18 -0.18)">
       <use xlink:href="#DejaVuSans-50"/>
       <use xlink:href="#DejaVuSans-53" x="60.302734"/>
       <use xlink:href="#DejaVuSans-4c" x="123.779297"/>
      </g>
     </g>
    </g>
    <g id="xtick_44">
     <g id="line2d_44">
      <g>
       <use xlink:href="#m6d30e0d145" x="1006.398268" y="453.6" style="stroke: #000000; stroke-width: 0.8"/>
      </g>
     </g>
     <g id="text_44">
      <!-- PF -->
      <g transform="translate(1002.654831 481.80625) rotate(-90) scale(0.18 -0.18)">
       <use xlink:href="#DejaVuSans-50"/>
       <use xlink:href="#DejaVuSans-46" x="60.302734"/>
      </g>
     </g>
    </g>
    <g id="xtick_45">
     <g id="line2d_45">
      <g>
       <use xlink:href="#m6d30e0d145" x="1024.291486" y="453.6" style="stroke: #000000; stroke-width: 0.8"/>
      </g>
     </g>
     <g id="text_45">
      <!-- PFt -->
      <g transform="translate(1020.548049 488.862813) rotate(-90) scale(0.18 -0.18)">
       <use xlink:href="#DejaVuSans-50"/>
       <use xlink:href="#DejaVuSans-46" x="60.302734"/>
       <use xlink:href="#DejaVuSans-74" x="117.822266"/>
      </g>
     </g>
    </g>
    <g id="xtick_46">
     <g id="line2d_46">
      <g>
       <use xlink:href="#m6d30e0d145" x="1042.184704" y="453.6" style="stroke: #000000; stroke-width: 0.8"/>
      </g>
     </g>
     <g id="text_46">
      <!-- PFcm -->
      <g transform="translate(1038.441267 509.236563) rotate(-90) scale(0.18 -0.18)">
       <defs>
        <path id="DejaVuSans-63" d="M 3122 3366 
L 3122 2828 
Q 2878 2963 2633 3030 
Q 2388 3097 2138 3097 
Q 1578 3097 1268 2742 
Q 959 2388 959 1747 
Q 959 1106 1268 751 
Q 1578 397 2138 397 
Q 2388 397 2633 464 
Q 2878 531 3122 666 
L 3122 134 
Q 2881 22 2623 -34 
Q 2366 -91 2075 -91 
Q 1284 -91 818 406 
Q 353 903 353 1747 
Q 353 2603 823 3093 
Q 1294 3584 2113 3584 
Q 2378 3584 2631 3529 
Q 2884 3475 3122 3366 
z
" transform="scale(0.015625)"/>
       </defs>
       <use xlink:href="#DejaVuSans-50"/>
       <use xlink:href="#DejaVuSans-46" x="60.302734"/>
       <use xlink:href="#DejaVuSans-63" x="117.822266"/>
       <use xlink:href="#DejaVuSans-6d" x="172.802734"/>
      </g>
     </g>
    </g>
    <g id="xtick_47">
     <g id="line2d_47">
      <g>
       <use xlink:href="#m6d30e0d145" x="1060.077922" y="453.6" style="stroke: #000000; stroke-width: 0.8"/>
      </g>
     </g>
     <g id="text_47">
      <!-- RI -->
      <g transform="translate(1056.334485 478.417188) rotate(-90) scale(0.18 -0.18)">
       <defs>
        <path id="DejaVuSans-52" d="M 2841 2188 
Q 3044 2119 3236 1894 
Q 3428 1669 3622 1275 
L 4263 0 
L 3584 0 
L 2988 1197 
Q 2756 1666 2539 1819 
Q 2322 1972 1947 1972 
L 1259 1972 
L 1259 0 
L 628 0 
L 628 4666 
L 2053 4666 
Q 2853 4666 3247 4331 
Q 3641 3997 3641 3322 
Q 3641 2881 3436 2590 
Q 3231 2300 2841 2188 
z
M 1259 4147 
L 1259 2491 
L 2053 2491 
Q 2509 2491 2742 2702 
Q 2975 2913 2975 3322 
Q 2975 3731 2742 3939 
Q 2509 4147 2053 4147 
L 1259 4147 
z
" transform="scale(0.015625)"/>
       </defs>
       <use xlink:href="#DejaVuSans-52"/>
       <use xlink:href="#DejaVuSans-49" x="69.482422"/>
      </g>
     </g>
    </g>
    <g id="xtick_48">
     <g id="line2d_48">
      <g>
       <use xlink:href="#m6d30e0d145" x="1077.97114" y="453.6" style="stroke: #000000; stroke-width: 0.8"/>
      </g>
     </g>
     <g id="text_48">
      <!-- VMV1 -->
      <g transform="translate(1074.227702 512.209375) rotate(-90) scale(0.18 -0.18)">
       <use xlink:href="#DejaVuSans-56"/>
       <use xlink:href="#DejaVuSans-4d" x="68.408203"/>
       <use xlink:href="#DejaVuSans-56" x="154.6875"/>
       <use xlink:href="#DejaVuSans-31" x="223.095703"/>
      </g>
     </g>
    </g>
    <g id="xtick_49">
     <g id="line2d_49">
      <g>
       <use xlink:href="#m6d30e0d145" x="1095.864358" y="453.6" style="stroke: #000000; stroke-width: 0.8"/>
      </g>
     </g>
     <g id="text_49">
      <!-- VMV2 -->
      <g transform="translate(1092.12092 512.209375) rotate(-90) scale(0.18 -0.18)">
       <use xlink:href="#DejaVuSans-56"/>
       <use xlink:href="#DejaVuSans-4d" x="68.408203"/>
       <use xlink:href="#DejaVuSans-56" x="154.6875"/>
       <use xlink:href="#DejaVuSans-32" x="223.095703"/>
      </g>
     </g>
    </g>
    <g id="xtick_50">
     <g id="line2d_50">
      <g>
       <use xlink:href="#m6d30e0d145" x="1113.757576" y="453.6" style="stroke: #000000; stroke-width: 0.8"/>
      </g>
     </g>
     <g id="text_50">
      <!-- VMV3 -->
      <g transform="translate(1110.014138 512.209375) rotate(-90) scale(0.18 -0.18)">
       <use xlink:href="#DejaVuSans-56"/>
       <use xlink:href="#DejaVuSans-4d" x="68.408203"/>
       <use xlink:href="#DejaVuSans-56" x="154.6875"/>
       <use xlink:href="#DejaVuSans-33" x="223.095703"/>
      </g>
     </g>
    </g>
    <g id="xtick_51">
     <g id="line2d_51">
      <g>
       <use xlink:href="#m6d30e0d145" x="1131.650794" y="453.6" style="stroke: #000000; stroke-width: 0.8"/>
      </g>
     </g>
     <g id="text_51">
      <!-- VVC -->
      <g transform="translate(1127.907356 497.795313) rotate(-90) scale(0.18 -0.18)">
       <use xlink:href="#DejaVuSans-56"/>
       <use xlink:href="#DejaVuSans-56" x="68.408203"/>
       <use xlink:href="#DejaVuSans-43" x="136.816406"/>
      </g>
     </g>
    </g>
    <g id="xtick_52">
     <g id="line2d_52">
      <g>
       <use xlink:href="#m6d30e0d145" x="1149.544012" y="453.6" style="stroke: #000000; stroke-width: 0.8"/>
      </g>
     </g>
     <g id="text_52">
      <!-- ProS -->
      <g transform="translate(1145.800574 500.574063) rotate(-90) scale(0.18 -0.18)">
       <defs>
        <path id="DejaVuSans-72" d="M 2631 2963 
Q 2534 3019 2420 3045 
Q 2306 3072 2169 3072 
Q 1681 3072 1420 2755 
Q 1159 2438 1159 1844 
L 1159 0 
L 581 0 
L 581 3500 
L 1159 3500 
L 1159 2956 
Q 1341 3275 1631 3429 
Q 1922 3584 2338 3584 
Q 2397 3584 2469 3576 
Q 2541 3569 2628 3553 
L 2631 2963 
z
" transform="scale(0.015625)"/>
        <path id="DejaVuSans-6f" d="M 1959 3097 
Q 1497 3097 1228 2736 
Q 959 2375 959 1747 
Q 959 1119 1226 758 
Q 1494 397 1959 397 
Q 2419 397 2687 759 
Q 2956 1122 2956 1747 
Q 2956 2369 2687 2733 
Q 2419 3097 1959 3097 
z
M 1959 3584 
Q 2709 3584 3137 3096 
Q 3566 2609 3566 1747 
Q 3566 888 3137 398 
Q 2709 -91 1959 -91 
Q 1206 -91 779 398 
Q 353 888 353 1747 
Q 353 2609 779 3096 
Q 1206 3584 1959 3584 
z
" transform="scale(0.015625)"/>
       </defs>
       <use xlink:href="#DejaVuSans-50"/>
       <use xlink:href="#DejaVuSans-72" x="58.552734"/>
       <use xlink:href="#DejaVuSans-6f" x="97.416016"/>
       <use xlink:href="#DejaVuSans-53" x="158.597656"/>
      </g>
     </g>
    </g>
    <g id="xtick_53">
     <g id="line2d_53">
      <g>
       <use xlink:href="#m6d30e0d145" x="1167.437229" y="453.6" style="stroke: #000000; stroke-width: 0.8"/>
      </g>
     </g>
     <g id="text_53">
      <!-- PHA1 -->
      <g transform="translate(1163.693792 508.755625) rotate(-90) scale(0.18 -0.18)">
       <defs>
        <path id="DejaVuSans-48" d="M 628 4666 
L 1259 4666 
L 1259 2753 
L 3553 2753 
L 3553 4666 
L 4184 4666 
L 4184 0 
L 3553 0 
L 3553 2222 
L 1259 2222 
L 1259 0 
L 628 0 
L 628 4666 
z
" transform="scale(0.015625)"/>
       </defs>
       <use xlink:href="#DejaVuSans-50"/>
       <use xlink:href="#DejaVuSans-48" x="60.302734"/>
       <use xlink:href="#DejaVuSans-41" x="135.498047"/>
       <use xlink:href="#DejaVuSans-31" x="203.90625"/>
      </g>
     </g>
    </g>
    <g id="xtick_54">
     <g id="line2d_54">
      <g>
       <use xlink:href="#m6d30e0d145" x="1185.330447" y="453.6" style="stroke: #000000; stroke-width: 0.8"/>
      </g>
     </g>
     <g id="text_54">
      <!-- PHA2 -->
      <g transform="translate(1181.58701 508.755625) rotate(-90) scale(0.18 -0.18)">
       <use xlink:href="#DejaVuSans-50"/>
       <use xlink:href="#DejaVuSans-48" x="60.302734"/>
       <use xlink:href="#DejaVuSans-41" x="135.498047"/>
       <use xlink:href="#DejaVuSans-32" x="203.90625"/>
      </g>
     </g>
    </g>
    <g id="xtick_55">
     <g id="line2d_55">
      <g>
       <use xlink:href="#m6d30e0d145" x="1203.223665" y="453.6" style="stroke: #000000; stroke-width: 0.8"/>
      </g>
     </g>
     <g id="text_55">
      <!-- PHA3 -->
      <g transform="translate(1199.480228 508.755625) rotate(-90) scale(0.18 -0.18)">
       <use xlink:href="#DejaVuSans-50"/>
       <use xlink:href="#DejaVuSans-48" x="60.302734"/>
       <use xlink:href="#DejaVuSans-41" x="135.498047"/>
       <use xlink:href="#DejaVuSans-33" x="203.90625"/>
      </g>
     </g>
    </g>
    <g id="xtick_56">
     <g id="line2d_56">
      <g>
       <use xlink:href="#m6d30e0d145" x="1221.116883" y="453.6" style="stroke: #000000; stroke-width: 0.8"/>
      </g>
     </g>
     <g id="text_56">
      <!-- PresS -->
      <g transform="translate(1217.373446 510.012813) rotate(-90) scale(0.18 -0.18)">
       <defs>
        <path id="DejaVuSans-65" d="M 3597 1894 
L 3597 1613 
L 953 1613 
Q 991 1019 1311 708 
Q 1631 397 2203 397 
Q 2534 397 2845 478 
Q 3156 559 3463 722 
L 3463 178 
Q 3153 47 2828 -22 
Q 2503 -91 2169 -91 
Q 1331 -91 842 396 
Q 353 884 353 1716 
Q 353 2575 817 3079 
Q 1281 3584 2069 3584 
Q 2775 3584 3186 3129 
Q 3597 2675 3597 1894 
z
M 3022 2063 
Q 3016 2534 2758 2815 
Q 2500 3097 2075 3097 
Q 1594 3097 1305 2825 
Q 1016 2553 972 2059 
L 3022 2063 
z
" transform="scale(0.015625)"/>
       </defs>
       <use xlink:href="#DejaVuSans-50"/>
       <use xlink:href="#DejaVuSans-72" x="58.552734"/>
       <use xlink:href="#DejaVuSans-65" x="97.416016"/>
       <use xlink:href="#DejaVuSans-73" x="158.939453"/>
       <use xlink:href="#DejaVuSans-53" x="211.039062"/>
      </g>
     </g>
    </g>
    <g id="xtick_57">
     <g id="line2d_57">
      <g>
       <use xlink:href="#m6d30e0d145" x="1239.010101" y="453.6" style="stroke: #000000; stroke-width: 0.8"/>
      </g>
     </g>
     <g id="text_57">
      <!-- H -->
      <g transform="translate(1235.266664 474.136563) rotate(-90) scale(0.18 -0.18)">
       <use xlink:href="#DejaVuSans-48"/>
      </g>
     </g>
    </g>
    <g id="text_58">
     <!-- Brain regions -->
     <g transform="translate(671.775 532.57625) scale(0.2 -0.2)">
      <defs>
       <path id="DejaVuSans-61" d="M 2194 1759 
Q 1497 1759 1228 1600 
Q 959 1441 959 1056 
Q 959 750 1161 570 
Q 1363 391 1709 391 
Q 2188 391 2477 730 
Q 2766 1069 2766 1631 
L 2766 1759 
L 2194 1759 
z
M 3341 1997 
L 3341 0 
L 2766 0 
L 2766 531 
Q 2569 213 2275 61 
Q 1981 -91 1556 -91 
Q 1019 -91 701 211 
Q 384 513 384 1019 
Q 384 1609 779 1909 
Q 1175 2209 1959 2209 
L 2766 2209 
L 2766 2266 
Q 2766 2663 2505 2880 
Q 2244 3097 1772 3097 
Q 1472 3097 1187 3025 
Q 903 2953 641 2809 
L 641 3341 
Q 956 3463 1253 3523 
Q 1550 3584 1831 3584 
Q 2591 3584 2966 3190 
Q 3341 2797 3341 1997 
z
" transform="scale(0.015625)"/>
       <path id="DejaVuSans-69" d="M 603 3500 
L 1178 3500 
L 1178 0 
L 603 0 
L 603 3500 
z
M 603 4863 
L 1178 4863 
L 1178 4134 
L 603 4134 
L 603 4863 
z
" transform="scale(0.015625)"/>
       <path id="DejaVuSans-6e" d="M 3513 2113 
L 3513 0 
L 2938 0 
L 2938 2094 
Q 2938 2591 2744 2837 
Q 2550 3084 2163 3084 
Q 1697 3084 1428 2787 
Q 1159 2491 1159 1978 
L 1159 0 
L 581 0 
L 581 3500 
L 1159 3500 
L 1159 2956 
Q 1366 3272 1645 3428 
Q 1925 3584 2291 3584 
Q 2894 3584 3203 3211 
Q 3513 2838 3513 2113 
z
" transform="scale(0.015625)"/>
       <path id="DejaVuSans-20" transform="scale(0.015625)"/>
       <path id="DejaVuSans-67" d="M 2906 1791 
Q 2906 2416 2648 2759 
Q 2391 3103 1925 3103 
Q 1463 3103 1205 2759 
Q 947 2416 947 1791 
Q 947 1169 1205 825 
Q 1463 481 1925 481 
Q 2391 481 2648 825 
Q 2906 1169 2906 1791 
z
M 3481 434 
Q 3481 -459 3084 -895 
Q 2688 -1331 1869 -1331 
Q 1566 -1331 1297 -1286 
Q 1028 -1241 775 -1147 
L 775 -588 
Q 1028 -725 1275 -790 
Q 1522 -856 1778 -856 
Q 2344 -856 2625 -561 
Q 2906 -266 2906 331 
L 2906 616 
Q 2728 306 2450 153 
Q 2172 0 1784 0 
Q 1141 0 747 490 
Q 353 981 353 1791 
Q 353 2603 747 3093 
Q 1141 3584 1784 3584 
Q 2172 3584 2450 3431 
Q 2728 3278 2906 2969 
L 2906 3500 
L 3481 3500 
L 3481 434 
z
" transform="scale(0.015625)"/>
      </defs>
      <use xlink:href="#DejaVuSans-42"/>
      <use xlink:href="#DejaVuSans-72" x="68.603516"/>
      <use xlink:href="#DejaVuSans-61" x="109.716797"/>
      <use xlink:href="#DejaVuSans-69" x="170.996094"/>
      <use xlink:href="#DejaVuSans-6e" x="198.779297"/>
      <use xlink:href="#DejaVuSans-20" x="262.158203"/>
      <use xlink:href="#DejaVuSans-72" x="293.945312"/>
      <use xlink:href="#DejaVuSans-65" x="332.808594"/>
      <use xlink:href="#DejaVuSans-67" x="394.332031"/>
      <use xlink:href="#DejaVuSans-69" x="457.808594"/>
      <use xlink:href="#DejaVuSans-6f" x="485.591797"/>
      <use xlink:href="#DejaVuSans-6e" x="546.773438"/>
      <use xlink:href="#DejaVuSans-73" x="610.152344"/>
     </g>
    </g>
   </g>
   <g id="matplotlib.axis_2">
    <g id="ytick_1">
     <g id="line2d_58">
      <defs>
       <path id="mf0f59c642a" d="M 0 0 
L -3.5 0 
" style="stroke: #000000; stroke-width: 0.8"/>
      </defs>
      <g>
       <use xlink:href="#mf0f59c642a" x="180" y="430.522306" style="stroke: #000000; stroke-width: 0.8"/>
      </g>
     </g>
     <g id="text_59">
      <!-- 0.00 -->
      <g transform="translate(132.921875 437.360899) scale(0.18 -0.18)">
       <defs>
        <path id="DejaVuSans-2e" d="M 684 794 
L 1344 794 
L 1344 0 
L 684 0 
L 684 794 
z
" transform="scale(0.015625)"/>
       </defs>
       <use xlink:href="#DejaVuSans-30"/>
       <use xlink:href="#DejaVuSans-2e" x="63.623047"/>
       <use xlink:href="#DejaVuSans-30" x="95.410156"/>
       <use xlink:href="#DejaVuSans-30" x="159.033203"/>
      </g>
     </g>
    </g>
    <g id="ytick_2">
     <g id="line2d_59">
      <g>
       <use xlink:href="#mf0f59c642a" x="180" y="366.89796" style="stroke: #000000; stroke-width: 0.8"/>
      </g>
     </g>
     <g id="text_60">
      <!-- 0.02 -->
      <g transform="translate(132.921875 373.736553) scale(0.18 -0.18)">
       <use xlink:href="#DejaVuSans-30"/>
       <use xlink:href="#DejaVuSans-2e" x="63.623047"/>
       <use xlink:href="#DejaVuSans-30" x="95.410156"/>
       <use xlink:href="#DejaVuSans-32" x="159.033203"/>
      </g>
     </g>
    </g>
    <g id="ytick_3">
     <g id="line2d_60">
      <g>
       <use xlink:href="#mf0f59c642a" x="180" y="303.273613" style="stroke: #000000; stroke-width: 0.8"/>
      </g>
     </g>
     <g id="text_61">
      <!-- 0.04 -->
      <g transform="translate(132.921875 310.112207) scale(0.18 -0.18)">
       <use xlink:href="#DejaVuSans-30"/>
       <use xlink:href="#DejaVuSans-2e" x="63.623047"/>
       <use xlink:href="#DejaVuSans-30" x="95.410156"/>
       <use xlink:href="#DejaVuSans-34" x="159.033203"/>
      </g>
     </g>
    </g>
    <g id="ytick_4">
     <g id="line2d_61">
      <g>
       <use xlink:href="#mf0f59c642a" x="180" y="239.649267" style="stroke: #000000; stroke-width: 0.8"/>
      </g>
     </g>
     <g id="text_62">
      <!-- 0.06 -->
      <g transform="translate(132.921875 246.487861) scale(0.18 -0.18)">
       <use xlink:href="#DejaVuSans-30"/>
       <use xlink:href="#DejaVuSans-2e" x="63.623047"/>
       <use xlink:href="#DejaVuSans-30" x="95.410156"/>
       <use xlink:href="#DejaVuSans-36" x="159.033203"/>
      </g>
     </g>
    </g>
    <g id="ytick_5">
     <g id="line2d_62">
      <g>
       <use xlink:href="#mf0f59c642a" x="180" y="176.024921" style="stroke: #000000; stroke-width: 0.8"/>
      </g>
     </g>
     <g id="text_63">
      <!-- 0.08 -->
      <g transform="translate(132.921875 182.863515) scale(0.18 -0.18)">
       <use xlink:href="#DejaVuSans-30"/>
       <use xlink:href="#DejaVuSans-2e" x="63.623047"/>
       <use xlink:href="#DejaVuSans-30" x="95.410156"/>
       <use xlink:href="#DejaVuSans-38" x="159.033203"/>
      </g>
     </g>
    </g>
    <g id="ytick_6">
     <g id="line2d_63">
      <g>
       <use xlink:href="#mf0f59c642a" x="180" y="112.400575" style="stroke: #000000; stroke-width: 0.8"/>
      </g>
     </g>
     <g id="text_64">
      <!-- 0.10 -->
      <g transform="translate(132.921875 119.239169) scale(0.18 -0.18)">
       <use xlink:href="#DejaVuSans-30"/>
       <use xlink:href="#DejaVuSans-2e" x="63.623047"/>
       <use xlink:href="#DejaVuSans-31" x="95.410156"/>
       <use xlink:href="#DejaVuSans-30" x="159.033203"/>
      </g>
     </g>
    </g>
    <g id="text_65">
     <!-- Explainable variance -->
     <g transform="translate(124.7625 369.926875) rotate(-90) scale(0.2 -0.2)">
      <defs>
       <path id="DejaVuSans-45" d="M 628 4666 
L 3578 4666 
L 3578 4134 
L 1259 4134 
L 1259 2753 
L 3481 2753 
L 3481 2222 
L 1259 2222 
L 1259 531 
L 3634 531 
L 3634 0 
L 628 0 
L 628 4666 
z
" transform="scale(0.015625)"/>
       <path id="DejaVuSans-78" d="M 3513 3500 
L 2247 1797 
L 3578 0 
L 2900 0 
L 1881 1375 
L 863 0 
L 184 0 
L 1544 1831 
L 300 3500 
L 978 3500 
L 1906 2253 
L 2834 3500 
L 3513 3500 
z
" transform="scale(0.015625)"/>
       <path id="DejaVuSans-6c" d="M 603 4863 
L 1178 4863 
L 1178 0 
L 603 0 
L 603 4863 
z
" transform="scale(0.015625)"/>
       <path id="DejaVuSans-62" d="M 3116 1747 
Q 3116 2381 2855 2742 
Q 2594 3103 2138 3103 
Q 1681 3103 1420 2742 
Q 1159 2381 1159 1747 
Q 1159 1113 1420 752 
Q 1681 391 2138 391 
Q 2594 391 2855 752 
Q 3116 1113 3116 1747 
z
M 1159 2969 
Q 1341 3281 1617 3432 
Q 1894 3584 2278 3584 
Q 2916 3584 3314 3078 
Q 3713 2572 3713 1747 
Q 3713 922 3314 415 
Q 2916 -91 2278 -91 
Q 1894 -91 1617 61 
Q 1341 213 1159 525 
L 1159 0 
L 581 0 
L 581 4863 
L 1159 4863 
L 1159 2969 
z
" transform="scale(0.015625)"/>
      </defs>
      <use xlink:href="#DejaVuSans-45"/>
      <use xlink:href="#DejaVuSans-78" x="63.183594"/>
      <use xlink:href="#DejaVuSans-70" x="122.363281"/>
      <use xlink:href="#DejaVuSans-6c" x="185.839844"/>
      <use xlink:href="#DejaVuSans-61" x="213.623047"/>
      <use xlink:href="#DejaVuSans-69" x="274.902344"/>
      <use xlink:href="#DejaVuSans-6e" x="302.685547"/>
      <use xlink:href="#DejaVuSans-61" x="366.064453"/>
      <use xlink:href="#DejaVuSans-62" x="427.34375"/>
      <use xlink:href="#DejaVuSans-6c" x="490.820312"/>
      <use xlink:href="#DejaVuSans-65" x="518.603516"/>
      <use xlink:href="#DejaVuSans-20" x="580.126953"/>
      <use xlink:href="#DejaVuSans-76" x="611.914062"/>
      <use xlink:href="#DejaVuSans-61" x="671.09375"/>
      <use xlink:href="#DejaVuSans-72" x="732.373047"/>
      <use xlink:href="#DejaVuSans-69" x="773.486328"/>
      <use xlink:href="#DejaVuSans-61" x="801.269531"/>
      <use xlink:href="#DejaVuSans-6e" x="862.548828"/>
      <use xlink:href="#DejaVuSans-63" x="925.927734"/>
      <use xlink:href="#DejaVuSans-65" x="980.908203"/>
     </g>
    </g>
   </g>
   <g id="patch_117">
    <path d="M 180 453.6 
L 180 77.76 
" style="fill: none; stroke: #000000; stroke-width: 3; stroke-linejoin: miter; stroke-linecap: square"/>
   </g>
   <g id="patch_118">
    <path d="M 1296 453.6 
L 1296 77.76 
" style="fill: none; stroke: #000000; stroke-width: 3; stroke-linejoin: miter; stroke-linecap: square"/>
   </g>
   <g id="patch_119">
    <path d="M 180 453.6 
L 1296 453.6 
" style="fill: none; stroke: #000000; stroke-width: 3; stroke-linejoin: miter; stroke-linecap: square"/>
   </g>
   <g id="patch_120">
    <path d="M 180 77.76 
L 1296 77.76 
" style="fill: none; stroke: #000000; stroke-width: 3; stroke-linejoin: miter; stroke-linecap: square"/>
   </g>
   <g id="legend_1">
    <g id="patch_121">
     <path d="M 678.749375 581.06675 
L 797.250625 581.06675 
Q 800.050625 581.06675 800.050625 578.26675 
L 800.050625 538.568 
Q 800.050625 535.768 797.250625 535.768 
L 678.749375 535.768 
Q 675.949375 535.768 675.949375 538.568 
L 675.949375 578.26675 
Q 675.949375 581.06675 678.749375 581.06675 
z
" style="fill: #ffffff; opacity: 0.8; stroke: #cccccc; stroke-linejoin: miter"/>
    </g>
    <g id="patch_122">
     <path d="M 681.549375 552.005813 
L 709.549375 552.005813 
L 709.549375 542.205813 
L 681.549375 542.205813 
z
" style="fill: #1f77b4"/>
    </g>
    <g id="text_66">
     <!-- Geometry -->
     <g transform="translate(720.749375 552.005813) scale(0.14 -0.14)">
      <defs>
       <path id="DejaVuSans-79" d="M 2059 -325 
Q 1816 -950 1584 -1140 
Q 1353 -1331 966 -1331 
L 506 -1331 
L 506 -850 
L 844 -850 
Q 1081 -850 1212 -737 
Q 1344 -625 1503 -206 
L 1606 56 
L 191 3500 
L 800 3500 
L 1894 763 
L 2988 3500 
L 3597 3500 
L 2059 -325 
z
" transform="scale(0.015625)"/>
      </defs>
      <use xlink:href="#DejaVuSans-47"/>
      <use xlink:href="#DejaVuSans-65" x="77.490234"/>
      <use xlink:href="#DejaVuSans-6f" x="139.013672"/>
      <use xlink:href="#DejaVuSans-6d" x="200.195312"/>
      <use xlink:href="#DejaVuSans-65" x="297.607422"/>
      <use xlink:href="#DejaVuSans-74" x="359.130859"/>
      <use xlink:href="#DejaVuSans-72" x="398.339844"/>
      <use xlink:href="#DejaVuSans-79" x="439.453125"/>
     </g>
    </g>
    <g id="patch_123">
     <path d="M 681.549375 572.555188 
L 709.549375 572.555188 
L 709.549375 562.755188 
L 681.549375 562.755188 
z
" style="fill: #ff7f0e"/>
    </g>
    <g id="text_67">
     <!-- Roadtypes -->
     <g transform="translate(720.749375 572.555188) scale(0.14 -0.14)">
      <use xlink:href="#DejaVuSans-52"/>
      <use xlink:href="#DejaVuSans-6f" x="64.982422"/>
      <use xlink:href="#DejaVuSans-61" x="126.164062"/>
      <use xlink:href="#DejaVuSans-64" x="187.443359"/>
      <use xlink:href="#DejaVuSans-74" x="250.919922"/>
      <use xlink:href="#DejaVuSans-79" x="290.128906"/>
      <use xlink:href="#DejaVuSans-70" x="349.308594"/>
      <use xlink:href="#DejaVuSans-65" x="412.785156"/>
      <use xlink:href="#DejaVuSans-73" x="474.308594"/>
     </g>
    </g>
   </g>
  </g>
 </g>
 <defs>
  <clipPath id="p185411dc6e">
   <rect x="180" y="77.76" width="1116" height="375.84"/>
  </clipPath>
 </defs>
</svg>
